<svg width="18" height="18" viewBox="0 0 18 18" fill="none" xmlns="http://www.w3.org/2000/svg">
<path d="M13.9009 13.9995L14.9614 15.06L12.5614 17.46C12.2135 17.8067 11.7423 18.0014 11.2511 18.0014C10.76 18.0014 10.2888 17.8067 9.94089 17.46L7.54088 15.06L8.60139 13.9995L10.4996 15.9V9.75H11.9996V15.9L13.9009 13.9995ZM13.3421 5.40675C13.0075 3.97497 12.1588 2.71591 10.9571 1.86862C9.75536 1.02134 8.28437 0.644804 6.82337 0.81052C5.36237 0.976235 4.01309 1.67266 3.03169 2.76757C2.05028 3.86248 1.5051 5.27964 1.49963 6.75C1.4989 7.7088 1.73051 8.65351 2.17463 9.50325C1.36548 9.93685 0.724435 10.6284 0.353349 11.4681C-0.0177363 12.3078 -0.0975765 13.2474 0.126514 14.1376C0.350604 15.0278 0.86577 15.8177 1.59016 16.3816C2.31456 16.9455 3.20662 17.2512 4.12463 17.25H7.60614L6.10614 15.75H4.12463C3.48595 15.7519 2.8686 15.5203 2.38877 15.0988C1.90895 14.6772 1.59975 14.0949 1.51937 13.4613C1.43899 12.8277 1.59299 12.1865 1.95236 11.6585C2.31174 11.1305 2.85171 10.7521 3.47063 10.5945L4.54839 10.3162L3.88614 9.42225C3.30949 8.65077 2.99844 7.71317 2.99963 6.75C3.00944 5.61536 3.44752 4.52631 4.22615 3.70093C5.00477 2.87556 6.06647 2.3748 7.19861 2.29894C8.33075 2.22308 9.44976 2.57771 10.3315 3.29183C11.2133 4.00594 11.7928 5.02681 11.9539 6.15L12.0289 6.7185L12.5981 6.7935C13.3534 6.89367 14.0707 7.18433 14.6827 7.63813C15.2946 8.09193 15.7811 8.69395 16.0963 9.38755C16.4115 10.0812 16.545 10.8435 16.4844 11.603C16.4237 12.3624 16.1709 13.094 15.7496 13.7287L16.8221 14.8012C17.4143 14.0021 17.7978 13.068 17.938 12.0833C18.0783 11.0987 17.9708 10.0946 17.6253 9.16193C17.2798 8.22927 16.7072 7.39748 15.9594 6.7418C15.2115 6.08613 14.312 5.62727 13.3421 5.40675Z" fill="white"/>
</svg>
