<svg width="15" height="15" viewBox="0 0 15 15" fill="none" xmlns="http://www.w3.org/2000/svg">
<g clip-path="url(#clip0_141_1259)">
<path d="M9.26331 2.51941L1.0101 10.7732C0.968576 10.8149 0.938595 10.8674 0.924318 10.924L0.00952848 14.5957C-0.0178355 14.7063 0.0146444 14.8238 0.0953086 14.9045C0.156342 14.9655 0.239505 14.9993 0.324571 14.9993C0.350626 14.9993 0.377277 14.9961 0.403213 14.9895L4.07498 14.0746C4.13221 14.0603 4.1842 14.0305 4.22572 13.989L12.4796 5.73575L9.26331 2.51941Z" fill="#D9D9D9"/>
<path d="M14.5242 1.39403L13.6055 0.47531C12.9915 -0.138714 11.9213 -0.13812 11.308 0.47531L10.1826 1.60068L13.3988 4.8169L14.5242 3.69153C14.8309 3.38493 14.9999 2.97685 14.9999 2.54284C14.9999 2.10882 14.8309 1.70074 14.5242 1.39403Z" fill="#D9D9D9"/>
</g>
<defs>
<clipPath id="clip0_141_1259">
<rect width="15" height="15" fill="white"/>
</clipPath>
</defs>
</svg>
