<svg width="21" height="21" viewBox="0 0 21 21" fill="none" xmlns="http://www.w3.org/2000/svg">
                                    <g clip-path="url(#clip0_3_206)">
                                        <path d="M11.6904 1.33332C11.6904 1.11231 11.7782 0.900346 11.9345 0.744066C12.0908 0.587785 12.3027 0.499988 12.5238 0.499988C14.7331 0.502414 16.8513 1.38117 18.4136 2.94344C19.9759 4.50572 20.8547 6.62393 20.8571 8.83332C20.8571 9.05434 20.7693 9.2663 20.613 9.42258C20.4567 9.57886 20.2448 9.66666 20.0238 9.66666C19.8027 9.66666 19.5908 9.57886 19.4345 9.42258C19.2782 9.2663 19.1904 9.05434 19.1904 8.83332C19.1884 7.06582 18.4854 5.37128 17.2356 4.12147C15.9858 2.87166 14.2913 2.16864 12.5238 2.16665C12.3027 2.16665 12.0908 2.07886 11.9345 1.92258C11.7782 1.7663 11.6904 1.55434 11.6904 1.33332ZM12.5238 5.49999C13.4078 5.49999 14.2557 5.85118 14.8808 6.4763C15.5059 7.10142 15.8571 7.94927 15.8571 8.83332C15.8571 9.05434 15.9449 9.2663 16.1012 9.42258C16.2574 9.57886 16.4694 9.66666 16.6904 9.66666C16.9114 9.66666 17.1234 9.57886 17.2797 9.42258C17.436 9.2663 17.5238 9.05434 17.5238 8.83332C17.5224 7.50765 16.9952 6.23664 16.0578 5.29925C15.1204 4.36185 13.8494 3.83465 12.5238 3.83332C12.3027 3.83332 12.0908 3.92112 11.9345 4.0774C11.7782 4.23368 11.6904 4.44564 11.6904 4.66666C11.6904 4.88767 11.7782 5.09963 11.9345 5.25591C12.0908 5.41219 12.3027 5.49999 12.5238 5.49999ZM20.1013 14.4492C20.5842 14.9334 20.8554 15.5894 20.8554 16.2733C20.8554 16.9572 20.5842 17.6132 20.1013 18.0975L19.3429 18.9717C12.5179 25.5058 -4.09042 8.90166 2.34292 2.05499L3.30125 1.22165C3.78606 0.752219 4.43619 0.492529 5.111 0.498767C5.78581 0.505005 6.43104 0.77667 6.90708 1.25499C6.93292 1.28082 8.47708 3.28665 8.47708 3.28665C8.93528 3.76801 9.19034 4.40743 9.18925 5.07199C9.18817 5.73655 8.93101 6.37513 8.47125 6.85499L7.50625 8.06832C8.04029 9.36592 8.82547 10.5452 9.81668 11.5384C10.8079 12.5316 11.9856 13.3192 13.2821 13.8558L14.5029 12.885C14.9828 12.4256 15.6213 12.1687 16.2857 12.1678C16.95 12.1669 17.5892 12.4219 18.0704 12.88C18.0704 12.88 20.0754 14.4233 20.1013 14.4492ZM18.9546 15.6608C18.9546 15.6608 16.9604 14.1267 16.9346 14.1008C16.7629 13.9306 16.5309 13.8351 16.2892 13.8351C16.0474 13.8351 15.8154 13.9306 15.6438 14.1008C15.6213 14.1242 13.9404 15.4633 13.9404 15.4633C13.8271 15.5535 13.6923 15.6126 13.5493 15.6348C13.4062 15.657 13.2599 15.6416 13.1246 15.59C11.445 14.9646 9.91936 13.9856 8.65111 12.7192C7.38286 11.4528 6.40159 9.92868 5.77375 8.24999C5.71808 8.11287 5.69993 7.9634 5.72117 7.81694C5.74241 7.67048 5.80226 7.53232 5.89458 7.41666C5.89458 7.41666 7.23375 5.73499 7.25625 5.71332C7.42647 5.54164 7.52198 5.30967 7.52198 5.0679C7.52198 4.82614 7.42647 4.59417 7.25625 4.42249C7.23042 4.39749 5.69625 2.40165 5.69625 2.40165C5.522 2.24541 5.29459 2.16173 5.06062 2.16778C4.82666 2.17382 4.60387 2.26912 4.43792 2.43415L3.47958 3.26749C-1.22208 8.92082 13.1704 22.515 18.1246 17.8333L18.8838 16.9583C19.0617 16.7935 19.1685 16.566 19.1817 16.3239C19.1949 16.0818 19.1135 15.844 18.9546 15.6608Z" fill="#1FBA14"/>
                                    </g>
                                    <defs>
                                        <clipPath id="clip0_3_206">
                                            <rect width="20" height="20" fill="white" transform="translate(0.857178 0.5)"/>
                                        </clipPath>
                                    </defs>
                                </svg>