<svg width="13" height="12" viewBox="0 0 13 12" fill="none" xmlns="http://www.w3.org/2000/svg">
<path d="M11.5398 5.53773H8.30863C7.2959 5.53773 6.46227 6.37136 6.46227 7.38409C6.46227 8.39682 7.2959 9.23046 8.30863 9.23046H10.155V10.6152C10.155 10.8686 9.94682 11.0768 9.69341 11.0768H2.30795C1.54818 11.0768 0.923182 10.4518 0.923182 9.69205V2.76819C0.923182 2.00841 1.54818 1.38341 2.30795 1.38341H3.23114C3.48455 1.38341 3.69273 1.17524 3.69273 0.921823C3.69273 0.668409 3.48455 0.460232 3.23114 0.460232H2.30795C1.04181 0.460232 0 1.50204 0 2.76819V9.69205C0 10.9582 1.04181 12 2.30795 12H9.69341C10.4532 12 11.0782 11.375 11.0782 10.6152V9.23046H11.5398C11.7932 9.23046 12.0014 9.02228 12.0014 8.76886V5.99932C12.0014 5.74591 11.7932 5.53773 11.5398 5.53773ZM11.0782 8.30727H8.30863C7.80227 8.30727 7.38545 7.89046 7.38545 7.38409C7.38545 6.87773 7.80227 6.46091 8.30863 6.46091H11.0782V8.30727Z" fill="#1FBA14"/>
<path d="M2.14177 2.33891C1.62663 2.5637 1.79696 3.22978 2.30794 3.22978H9.69339C9.94681 3.22978 10.155 3.43795 10.155 3.69137V4.15296C10.155 4.40637 10.3632 4.61455 10.6166 4.61455C10.87 4.61455 11.0782 4.40637 11.0782 4.15296V3.69137C11.0777 3.3244 10.9318 2.97221 10.672 2.7128C10.4125 2.45292 10.0604 2.30706 9.69339 2.3066H9.54568L8.7379 0.289445C8.6442 0.0563417 8.37647 -0.0599792 8.14245 0.0309541L2.14177 2.33891ZM8.54865 2.3066H4.79591L8.05013 1.05569L8.54865 2.3066Z" fill="#1FBA14"/>
</svg>
