<svg xmlns="http://www.w3.org/2000/svg" width="116.999" height="146.249" viewBox="0 0 116.999 146.249">
    <path fill="rgba(0,0,0,0.03)" fill-rule="evenodd" d="M1691.029 1309.249h-95.062A10.968 10.968 0 0 1 1585 1298.28v-102.373l32.905-32.907h73.124a10.967 10.967 0 0 1 10.971 10.968v124.312a10.967 10.967 0 0 1-10.971 10.969zm-68.791-139.668h-1.61l-26.939 26.947h24.46a4.091 4.091 0 0 0 4.089-4.088v-22.859zm73.179 4.387a4.387 4.387 0 0 0-4.388-4.387h-62.1v22.852a10.81 10.81 0 0 1-10.771 10.785h-26.573v95.061a4.385 4.385 0 0 0 4.387 4.387h95.062a4.387 4.387 0 0 0 4.388-4.387zm-26.326 91.405h-51.186a3.656 3.656 0 1 1 0-7.312h51.186a3.656 3.656 0 1 1 0 7.312zm0-25.593h-51.186a3.656 3.656 0 1 1 0-7.312h51.186a3.656 3.656 0 1 1 0 7.312z" transform="translate(-1584.999 -1163)"/>
</svg>
