<svg width="40" height="36" viewBox="0 0 40 36" fill="none" xmlns="http://www.w3.org/2000/svg">
<path d="M20.2098 16.6223C20.5886 16.6223 20.9519 16.7728 21.2197 17.0406C21.4876 17.3085 21.6381 17.6718 21.6381 18.0506H23.0663C23.0663 17.293 22.7654 16.5664 22.2297 16.0307C21.694 15.495 20.9674 15.194 20.2098 15.194H20.0027V13.4587H18.5744V15.194H18.3673C17.6097 15.194 16.8831 15.495 16.3474 16.0307C15.8117 16.5664 15.5107 17.293 15.5107 18.0506C15.5107 18.8082 15.8117 19.5348 16.3474 20.0705C16.8831 20.6062 17.6097 20.9071 18.3673 20.9071H18.5744V23.7637H18.3673C17.9885 23.7637 17.6252 23.6132 17.3574 23.3454C17.0895 23.0775 16.939 22.7142 16.939 22.3354H15.5107C15.5107 23.093 15.8117 23.8196 16.3474 24.3553C16.8831 24.891 17.6097 25.192 18.3673 25.192H18.5744V26.9273H20.0027V25.192H20.2098C20.9674 25.192 21.694 24.891 22.2297 24.3553C22.7654 23.8196 23.0663 23.093 23.0663 22.3354C23.0663 21.5778 22.7654 20.8512 22.2297 20.3155C21.694 19.7798 20.9674 19.4789 20.2098 19.4789H20.0027V16.6223H20.2098ZM20.2098 20.9071C20.5886 20.9071 20.9519 21.0576 21.2197 21.3255C21.4876 21.5933 21.6381 21.9566 21.6381 22.3354C21.6381 22.7142 21.4876 23.0775 21.2197 23.3454C20.9519 23.6132 20.5886 23.7637 20.2098 23.7637H20.0027V20.9071H20.2098ZM18.5744 19.4789H18.3673C17.9885 19.4789 17.6252 19.3284 17.3574 19.0605C17.0895 18.7927 16.939 18.4294 16.939 18.0506C16.939 17.6718 17.0895 17.3085 17.3574 17.0406C17.6252 16.7728 17.9885 16.6223 18.3673 16.6223H18.5744V19.4789Z" fill="white"/>
<path d="M30.7144 15.9082C31.5032 15.9082 32.1427 15.2687 32.1427 14.4799C32.1427 13.6911 31.5032 13.0516 30.7144 13.0516C29.9256 13.0516 29.2861 13.6911 29.2861 14.4799C29.2861 15.2687 29.9256 15.9082 30.7144 15.9082Z" fill="white"/>
<path d="M13.333 8.09548L13.8186 9.43806C17.1323 8.25569 20.7529 8.25569 24.0665 9.43806L24.5093 8.0812C20.8902 6.81748 16.9489 6.82252 13.333 8.09548Z" fill="white"/>
<path d="M39.8057 15.4225C39.7391 15.3508 39.6585 15.2934 39.5688 15.2541C39.4791 15.2148 39.3823 15.1943 39.2844 15.194H36.7778C36.2258 12.7219 35.0367 10.4372 33.3285 8.56681L35.5994 2.24668C35.6577 2.08193 35.6535 1.90155 35.5877 1.73967C35.5219 1.57779 35.399 1.44566 35.2424 1.36829C35.0424 1.26831 30.2005 -1.07407 25.9014 1.24688C24.7637 1.85951 23.7853 2.73024 23.0449 3.78922C22.9843 3.77336 22.9218 3.76615 22.8592 3.7678H15.7178C15.6585 3.76082 15.5986 3.76082 15.5393 3.7678C13.0944 3.84864 10.7096 4.5456 8.60603 5.79403C6.50244 7.04245 4.74819 8.8019 3.506 10.9092C3.41092 10.9163 3.31543 10.9163 3.22035 10.9092C2.74684 10.9092 2.29273 10.7211 1.95792 10.3863C1.6231 10.0515 1.435 9.59734 1.435 9.12384C1.435 8.65034 1.6231 8.19623 1.95792 7.86141C2.29273 7.52659 2.74684 7.33849 3.22035 7.33849C3.4658 7.33527 3.70916 7.38394 3.93449 7.48132L4.49152 6.16016C4.06986 5.97742 3.61392 5.88725 3.15445 5.89571C2.69498 5.90417 2.24267 6.01108 1.82804 6.20921C1.4134 6.40735 1.04608 6.69212 0.750854 7.04429C0.455632 7.39647 0.239375 7.80786 0.116672 8.25073C-0.0060301 8.69359 -0.0323238 9.15762 0.0395649 9.61151C0.111454 10.0654 0.279853 10.4986 0.533402 10.8819C0.78695 11.2651 1.11975 11.5896 1.50935 11.8333C1.89895 12.077 2.33629 12.2343 2.79186 12.2946C1.90377 14.2105 1.44089 16.2959 1.435 18.4076C1.43072 20.3121 1.80191 22.1987 2.52733 23.9596C3.25276 25.7204 4.31819 27.321 5.6627 28.6698L4.57007 31.3479C4.25165 32.1369 4.25843 33.02 4.58893 33.8041C4.91943 34.5882 5.5468 35.2096 6.33399 35.5327C6.71862 35.6932 7.13127 35.7757 7.54803 35.7755C7.97769 35.775 8.4028 35.6875 8.79778 35.5184C9.18726 35.3537 9.54041 35.1137 9.83697 34.8123C10.1335 34.5108 10.3677 34.1538 10.526 33.7616L11.1687 32.1691C12.5722 32.6833 14.0461 32.9795 15.5393 33.0475C15.5985 33.055 15.6585 33.055 15.7178 33.0475H22.8592C22.9185 33.055 22.9784 33.055 23.0377 33.0475C24.084 33.0038 25.1227 32.8506 26.1371 32.5905L26.6227 33.7616C26.944 34.5509 27.5656 35.1803 28.3509 35.5113C28.7408 35.6757 29.1597 35.7604 29.5828 35.7604C30.0059 35.7604 30.4248 35.6757 30.8147 35.5113C31.6019 35.1882 32.2293 34.5668 32.5598 33.7827C32.8903 32.9986 32.897 32.1155 32.5786 31.3264L31.8645 29.5982C32.9153 28.7408 33.8387 27.7381 34.6068 26.6203H38.5702C38.7513 26.6207 38.9258 26.5524 39.0583 26.4291C39.1909 26.3058 39.2717 26.1367 39.2844 25.9561L39.9985 15.9582C40.0048 15.8604 39.991 15.7624 39.9578 15.6703C39.9246 15.5782 39.8728 15.4938 39.8057 15.4225ZM37.9061 25.192H34.2283C34.1088 25.1922 33.9913 25.2224 33.8865 25.2797C33.7817 25.3371 33.6929 25.4199 33.6284 25.5205C32.8075 26.7902 31.7763 27.9107 30.579 28.8341C30.4546 28.9291 30.3649 29.0623 30.3236 29.2133C30.2823 29.3642 30.2918 29.5246 30.3505 29.6696L31.2575 31.8835C31.3881 32.2108 31.4193 32.5693 31.3473 32.9143C31.2752 33.2593 31.1031 33.5754 30.8523 33.8231C30.6016 34.0707 30.2835 34.239 29.9376 34.3068C29.5918 34.3747 29.2336 34.339 28.9079 34.2044C28.6915 34.1148 28.4953 33.9827 28.331 33.8158C28.1666 33.649 28.0374 33.4509 27.951 33.2332L27.2369 31.4407C27.1698 31.2768 27.0443 31.1437 26.8846 31.0671C26.7249 30.9906 26.5425 30.9761 26.3727 31.0265C25.2324 31.3763 24.0512 31.5756 22.8592 31.6192H22.7235H15.8749H15.7178C14.105 31.5767 12.5141 31.2353 11.0259 30.6123C10.9387 30.5762 10.8453 30.5577 10.7509 30.558C10.6566 30.5582 10.5632 30.5771 10.4762 30.6137C10.3893 30.6502 10.3104 30.7036 10.2441 30.7707C10.1779 30.8379 10.1256 30.9176 10.0904 31.0051L9.17627 33.2475C9.08989 33.4652 8.96068 33.6633 8.7963 33.8301C8.63192 33.997 8.43571 34.1291 8.21932 34.2187C7.89362 34.3533 7.53547 34.3889 7.18963 34.3211C6.8438 34.2533 6.52563 34.085 6.27491 33.8373C6.02419 33.5897 5.85204 33.2736 5.77999 32.9286C5.70794 32.5836 5.73918 32.2251 5.8698 31.8977L7.14811 28.7627C7.20331 28.6287 7.21647 28.4812 7.18586 28.3396C7.15525 28.1981 7.08231 28.0691 6.97672 27.97C5.07349 26.1765 3.74668 23.8575 3.16502 21.3079C2.58336 18.7582 2.77313 16.0932 3.71021 13.6518C4.64729 11.2103 6.28933 9.10272 8.4275 7.59703C10.5657 6.09134 13.1033 5.25559 15.7178 5.19607H15.8535H22.6806L23.3234 5.25321C23.4519 5.26104 23.5801 5.23398 23.6945 5.1749C23.8089 5.11581 23.9052 5.02689 23.9732 4.91756C24.61 3.90155 25.5012 3.0695 26.5584 2.50377C29.415 0.968369 32.6929 1.91103 34.0069 2.40379L31.8145 8.4954C31.7739 8.61754 31.767 8.74839 31.7947 8.8741C31.8224 8.99981 31.8835 9.11571 31.9716 9.20954C33.7881 11.0802 35.0063 13.4495 35.4709 16.0153C35.5013 16.1816 35.5898 16.3318 35.7206 16.4391C35.8513 16.5463 36.0159 16.6036 36.185 16.6009H38.5131L37.9061 25.192Z" fill="white"/>
</svg>
