<svg width="15" height="15" viewBox="0 0 15 15" fill="none" xmlns="http://www.w3.org/2000/svg">
    <g clip-path="url(#clip0_144_1082)">
        <path d="M13.7286 1.57149C12.0846 -0.0370828 9.45643 -0.0367329 7.81284 1.57229L0.919479 8.46568C-0.326977 9.74152 -0.303156 11.7862 0.972687 13.0327C2.22754 14.2587 4.23163 14.2587 5.48648 13.0327L11.7285 6.79063C12.54 5.97916 12.54 4.66346 11.7285 3.85199C10.9171 3.04051 9.60136 3.04051 8.78988 3.85199L2.81922 9.82262C2.61097 10.0383 2.61695 10.3819 2.83258 10.5901C3.04293 10.7933 3.37639 10.7933 3.58674 10.5901L9.55737 4.61948C9.9533 4.24019 10.5817 4.2537 10.961 4.64963C11.3288 5.0336 11.3288 5.63917 10.961 6.02314L4.71899 12.2652C3.87574 13.0964 2.51826 13.0867 1.687 12.2434C0.86414 11.4087 0.86414 10.0679 1.687 9.23317L8.58036 2.33978C9.80824 1.11145 11.7994 1.1111 13.0277 2.33895C14.256 3.5668 14.2564 5.55795 13.0285 6.78627L6.13512 13.6797C5.90744 13.8747 5.88091 14.2173 6.0759 14.445C6.27089 14.6727 6.61354 14.6992 6.84123 14.5042C6.86247 14.486 6.88225 14.4662 6.90045 14.445L13.7938 7.5516C15.4272 5.88225 15.398 3.20484 13.7286 1.57149Z" fill="#1FBA14"></path>
    </g>
    <defs>
        <clipPath id="clip0_144_1082">
            <rect width="15" height="15" fill="white"></rect>
        </clipPath>
    </defs>
</svg>
