<svg width="60" height="60" viewBox="0 0 60 60" fill="none" xmlns="http://www.w3.org/2000/svg">
<path d="M50.625 24.0938V10.3125C50.6231 10.064 50.5258 9.82564 50.3531 9.64687L42.8531 2.14687C42.6744 1.97419 42.436 1.87685 42.1875 1.875H14.0625C12.8193 1.875 11.627 2.36886 10.7479 3.24794C9.86886 4.12701 9.375 5.3193 9.375 6.5625V24.0938C7.18474 24.8701 5.28825 26.305 3.94552 28.2016C2.60279 30.0982 1.87957 32.3637 1.875 34.6875C1.8766 34.7442 1.88287 34.8006 1.89375 34.8562L2.5875 38.5687C2.58918 38.6038 2.59549 38.6385 2.60625 38.6719L4.66875 49.6594L2.84062 56.9625C2.80703 57.101 2.80474 57.2452 2.83393 57.3847C2.86313 57.5242 2.92306 57.6554 3.00938 57.7687C3.09766 57.8805 3.21024 57.9706 3.33857 58.0324C3.4669 58.0941 3.6076 58.1258 3.75 58.125H15C15.2041 58.1244 15.4024 58.0573 15.5648 57.9338C15.7272 57.8102 15.8449 57.6371 15.9 57.4406L16.2375 56.25H43.7625L44.1 57.4406C44.1551 57.6371 44.2728 57.8102 44.4352 57.9338C44.5976 58.0573 44.7959 58.1244 45 58.125H56.25C56.3924 58.1258 56.5331 58.0941 56.6614 58.0324C56.7898 57.9706 56.9023 57.8805 56.9906 57.7687C57.0769 57.6554 57.1369 57.5242 57.1661 57.3847C57.1953 57.2452 57.193 57.101 57.1594 56.9625L55.3312 49.6594L57.3938 38.6625C57.4053 38.6325 57.4116 38.6008 57.4125 38.5687L58.1063 34.8562C58.1171 34.8006 58.1234 34.7442 58.125 34.6875C58.1204 32.3637 57.3972 30.0982 56.0545 28.2016C54.7118 26.305 52.8153 24.8701 50.625 24.0938ZM43.125 5.07187L47.4281 9.375H43.125V5.07187ZM11.25 6.5625C11.2522 5.81726 11.5493 5.10319 12.0762 4.57622C12.6032 4.04926 13.3173 3.75223 14.0625 3.75H41.25V10.3125C41.25 10.5611 41.3488 10.7996 41.5246 10.9754C41.7004 11.1512 41.9389 11.25 42.1875 11.25H48.75V23.6062C46.6019 23.2251 44.389 23.4927 42.3938 24.375H17.6063C15.611 23.4927 13.3981 23.2251 11.25 23.6062V6.5625ZM34.6875 45V46.875H25.3125V45H34.6875ZM25.95 41.25H34.05L33.0188 42.5437C32.8958 42.7125 32.8301 42.9162 32.8313 43.125H27.1687C27.1699 42.9162 27.1042 42.7125 26.9813 42.5437L25.95 41.25ZM24.45 39.375L23.5219 38.2125L23.7 37.5H36.3L36.4781 38.2125L35.55 39.375H24.45ZM24.3281 33.75H35.6719C35.6437 34.0594 35.625 34.3687 35.625 34.6875C35.6251 34.7634 35.6346 34.8389 35.6531 34.9125L35.8313 35.625H24.1688L24.3469 34.9125C24.3654 34.8389 24.3749 34.7634 24.375 34.6875C24.375 34.3687 24.3563 34.0594 24.3281 33.75ZM35.9906 31.875H24.0094C23.8421 31.2307 23.6162 30.6031 23.3344 30H36.6656C36.3838 30.6031 36.1579 31.2307 35.9906 31.875ZM22.2469 28.125C21.7486 27.4393 21.1764 26.8105 20.5406 26.25H39.4594C38.8236 26.8105 38.2514 27.4393 37.7531 28.125H22.2469ZM15.975 50.3719L14.2969 56.25H4.95L6.53437 49.9125C6.56558 49.7834 6.56877 49.6492 6.54375 49.5187L4.43438 38.25C4.43269 38.2149 4.42639 38.1803 4.41563 38.1469L3.75 34.6031C3.74627 32.1167 4.73041 29.7307 6.48593 27.9699C8.24145 26.2091 10.6245 25.2178 13.1109 25.2141C15.5973 25.2103 17.9834 26.1945 19.7442 27.95C21.505 29.7055 22.4963 32.0886 22.5 34.575L21.5906 38.2125C21.554 38.3529 21.5511 38.4999 21.582 38.6416C21.613 38.7834 21.677 38.9158 21.7687 39.0281L24.7969 42.8062L23.9531 43.2281C23.7977 43.305 23.667 43.424 23.5758 43.5715C23.4846 43.719 23.4367 43.8891 23.4375 44.0625V49.6875H16.875C16.6709 49.6881 16.4726 49.7552 16.3102 49.8787C16.1478 50.0023 16.0301 50.1754 15.975 50.3719ZM16.7719 54.375L17.5781 51.5625H24.375C24.6236 51.5625 24.8621 51.4637 25.0379 51.2879C25.2137 51.1121 25.3125 50.8736 25.3125 50.625V48.75H34.6875V50.625C34.6875 50.8736 34.7863 51.1121 34.9621 51.2879C35.1379 51.4637 35.3764 51.5625 35.625 51.5625H42.4219L43.2281 54.375H16.7719ZM55.5844 38.1562C55.5728 38.1862 55.5665 38.2179 55.5656 38.25L53.4562 49.5187C53.4312 49.6492 53.4344 49.7834 53.4656 49.9125L55.05 56.25H45.7031L44.025 50.3719C43.9699 50.1754 43.8522 50.0023 43.6898 49.8787C43.5274 49.7552 43.3291 49.6881 43.125 49.6875H36.5625V44.0625C36.5633 43.8891 36.5154 43.719 36.4242 43.5715C36.333 43.424 36.2023 43.305 36.0469 43.2281L35.2031 42.8062L38.2312 39.0281C38.323 38.9158 38.387 38.7834 38.418 38.6416C38.4489 38.4999 38.446 38.3529 38.4094 38.2125L37.5 34.575C37.5037 32.0886 38.495 29.7055 40.2558 27.95C42.0166 26.1945 44.4027 25.2103 46.8891 25.2141C49.3755 25.2178 51.7586 26.2091 53.5141 27.9699C55.2696 29.7307 56.2537 32.1167 56.25 34.6031L55.5844 38.1562Z" fill="#F5F5F5"/>
<path d="M15.9375 18.75H30.9375C31.6834 18.75 32.3988 18.4537 32.9262 17.9262C33.4537 17.3988 33.75 16.6834 33.75 15.9375V8.4375C33.75 7.69158 33.4537 6.97621 32.9262 6.44876C32.3988 5.92132 31.6834 5.625 30.9375 5.625H15.9375C15.1916 5.625 14.4762 5.92132 13.9488 6.44876C13.4213 6.97621 13.125 7.69158 13.125 8.4375V15.9375C13.125 16.6834 13.4213 17.3988 13.9488 17.9262C14.4762 18.4537 15.1916 18.75 15.9375 18.75ZM15 8.4375C15 8.18886 15.0988 7.9504 15.2746 7.77459C15.4504 7.59877 15.6889 7.5 15.9375 7.5H30.9375C31.1861 7.5 31.4246 7.59877 31.6004 7.77459C31.7762 7.9504 31.875 8.18886 31.875 8.4375V15.9375C31.875 16.1861 31.7762 16.4246 31.6004 16.6004C31.4246 16.7762 31.1861 16.875 30.9375 16.875H15.9375C15.6889 16.875 15.4504 16.7762 15.2746 16.6004C15.0988 16.4246 15 16.1861 15 15.9375V8.4375Z" fill="#F5F5F5"/>
<path d="M13.125 20.625H46.875V22.5H13.125V20.625Z" fill="#F5F5F5"/>
</svg>
