<svg width="20" height="21" viewBox="0 0 20 21" fill="none" xmlns="http://www.w3.org/2000/svg">
<path d="M5 1.75C4.13978 1.75 3.4375 2.45228 3.4375 3.3125V17.6875C3.4375 18.5477 4.13978 19.25 5 19.25H15C15.8602 19.25 16.5625 18.5477 16.5625 17.6875V6.75H12.8125C12.1254 6.75 11.5625 6.18709 11.5625 5.5V1.75H5ZM12.1875 1.89709V5.5C12.1875 5.85166 12.4608 6.125 12.8125 6.125H16.3556C16.3237 6.08079 16.2907 6.03726 16.2524 5.99805L12.4109 2.06494C12.3444 1.99686 12.2677 1.94357 12.1875 1.89709ZM6.5625 8.625H13.4375C13.5204 8.625 13.5999 8.65792 13.6585 8.71653C13.7171 8.77513 13.75 8.85462 13.75 8.9375C13.75 9.02038 13.7171 9.09987 13.6585 9.15847C13.5999 9.21708 13.5204 9.25 13.4375 9.25H6.5625C6.47962 9.25 6.40014 9.21708 6.34153 9.15847C6.28293 9.09987 6.25 9.02038 6.25 8.9375C6.25 8.85462 6.28293 8.77513 6.34153 8.71653C6.40014 8.65792 6.47962 8.625 6.5625 8.625ZM6.5625 11.125H13.4375C13.5204 11.125 13.5999 11.1579 13.6585 11.2165C13.7171 11.2751 13.75 11.3546 13.75 11.4375C13.75 11.5204 13.7171 11.5999 13.6585 11.6585C13.5999 11.7171 13.5204 11.75 13.4375 11.75H6.5625C6.47962 11.75 6.40014 11.7171 6.34153 11.6585C6.28293 11.5999 6.25 11.5204 6.25 11.4375C6.25 11.3546 6.28293 11.2751 6.34153 11.2165C6.40014 11.1579 6.47962 11.125 6.5625 11.125ZM6.5625 13.625H13.4375C13.5204 13.625 13.5999 13.6579 13.6585 13.7165C13.7171 13.7751 13.75 13.8546 13.75 13.9375C13.75 14.0204 13.7171 14.0999 13.6585 14.1585C13.5999 14.2171 13.5204 14.25 13.4375 14.25H6.5625C6.47962 14.25 6.40014 14.2171 6.34153 14.1585C6.28293 14.0999 6.25 14.0204 6.25 13.9375C6.25 13.8546 6.28293 13.7751 6.34153 13.7165C6.40014 13.6579 6.47962 13.625 6.5625 13.625ZM6.5625 16.125H13.4375C13.5204 16.125 13.5999 16.1579 13.6585 16.2165C13.7171 16.2751 13.75 16.3546 13.75 16.4375C13.75 16.5204 13.7171 16.5999 13.6585 16.6585C13.5999 16.7171 13.5204 16.75 13.4375 16.75H6.5625C6.47962 16.75 6.40014 16.7171 6.34153 16.6585C6.28293 16.5999 6.25 16.5204 6.25 16.4375C6.25 16.3546 6.28293 16.2751 6.34153 16.2165C6.40014 16.1579 6.47962 16.125 6.5625 16.125Z" fill="#1FBA14"/>
</svg>
