<svg width="21" height="20" viewBox="0 0 21 20" fill="none" xmlns="http://www.w3.org/2000/svg">
    <g clip-path="url(#clip0_1_183)">
        <path class="hover" d="M10.4205 12.5C10.1995 12.5 9.98754 12.5878 9.83125 12.7441C9.67497 12.9004 9.58718 13.1123 9.58718 13.3333V15.8333C9.58718 16.4964 9.32379 17.1323 8.85494 17.6011C8.3861 18.0699 7.75022 18.3333 7.08718 18.3333H5.02384C4.3608 18.3333 3.72492 18.0699 3.25608 17.6011C2.78724 17.1323 2.52384 16.4964 2.52384 15.8333V4.16667C2.52384 3.50363 2.78724 2.86774 3.25608 2.3989C3.72492 1.93006 4.3608 1.66667 5.02384 1.66667H7.08718C7.75022 1.66667 8.3861 1.93006 8.85494 2.3989C9.32379 2.86774 9.58718 3.50363 9.58718 4.16667V6.66667C9.58718 6.88768 9.67497 7.09964 9.83125 7.25592C9.98754 7.4122 10.1995 7.5 10.4205 7.5C10.6415 7.5 10.8535 7.4122 11.0098 7.25592C11.166 7.09964 11.2538 6.88768 11.2538 6.66667V4.16667C11.2525 3.062 10.8131 2.00296 10.032 1.22185C9.25088 0.440735 8.19184 0.00132321 7.08718 0H5.02384C3.91918 0.00132321 2.86014 0.440735 2.07903 1.22185C1.29791 2.00296 0.858501 3.062 0.857178 4.16667L0.857178 15.8333C0.858501 16.938 1.29791 17.997 2.07903 18.7782C2.86014 19.5593 3.91918 19.9987 5.02384 20H7.08718C8.19184 19.9987 9.25088 19.5593 10.032 18.7782C10.8131 17.997 11.2525 16.938 11.2538 15.8333V13.3333C11.2538 13.1123 11.166 12.9004 11.0098 12.7441C10.8535 12.5878 10.6415 12.5 10.4205 12.5Z" fill="black"/>
        <path class="hover" d="M19.9131 8.23251L16.0914 4.41084C16.0146 4.33125 15.9226 4.26776 15.8209 4.22409C15.7193 4.18041 15.6099 4.15743 15.4993 4.15646C15.3886 4.1555 15.2789 4.17659 15.1765 4.21849C15.0741 4.26039 14.981 4.32227 14.9028 4.40051C14.8245 4.47875 14.7626 4.5718 14.7207 4.67421C14.6788 4.77663 14.6578 4.88636 14.6587 4.99701C14.6597 5.10766 14.6827 5.21701 14.7263 5.31868C14.77 5.42035 14.8335 5.5123 14.9131 5.58917L18.4656 9.14167L5.85726 9.16667C5.63625 9.16667 5.42428 9.25447 5.268 9.41075C5.11172 9.56703 5.02393 9.77899 5.02393 10C5.02393 10.221 5.11172 10.433 5.268 10.5893C5.42428 10.7455 5.63625 10.8333 5.85726 10.8333L18.5139 10.8083L14.9114 14.4108C14.8318 14.4877 14.7683 14.5797 14.7247 14.6813C14.681 14.783 14.658 14.8924 14.6571 15.003C14.6561 15.1137 14.6772 15.2234 14.7191 15.3258C14.761 15.4282 14.8229 15.5213 14.9011 15.5995C14.9793 15.6777 15.0724 15.7396 15.1748 15.7815C15.2772 15.8234 15.3869 15.8445 15.4976 15.8436C15.6082 15.8426 15.7176 15.8196 15.8193 15.7759C15.9209 15.7323 16.0129 15.6688 16.0898 15.5892L19.9114 11.7675C20.3803 11.2989 20.6439 10.6633 20.6442 10.0004C20.6445 9.33744 20.3816 8.70155 19.9131 8.23251Z" fill="black"/>
    </g>
    <defs>
        <clipPath id="clip0_1_183">
            <rect width="20" height="20" fill="white" transform="translate(0.857178)"/>
        </clipPath>
    </defs>
</svg>
