<svg width="10" height="12" viewBox="0 0 10 12" fill="none" xmlns="http://www.w3.org/2000/svg">
<path d="M7.5 7C7.5 7.1326 7.44732 7.25978 7.35355 7.35355C7.25979 7.44732 7.13261 7.5 7 7.5H3C2.86739 7.5 2.74022 7.44732 2.64645 7.35355C2.55268 7.25978 2.5 7.1326 2.5 7C2.5 6.86739 2.55268 6.74021 2.64645 6.64644C2.74022 6.55267 2.86739 6.5 3 6.5H7C7.13261 6.5 7.25979 6.55267 7.35355 6.64644C7.44732 6.74021 7.5 6.86739 7.5 7ZM5.5 8.5H3C2.86739 8.5 2.74022 8.55267 2.64645 8.64644C2.55268 8.74021 2.5 8.86739 2.5 9C2.5 9.1326 2.55268 9.25978 2.64645 9.35355C2.74022 9.44732 2.86739 9.5 3 9.5H5.5C5.63261 9.5 5.75979 9.44732 5.85355 9.35355C5.94732 9.25978 6 9.1326 6 9C6 8.86739 5.94732 8.74021 5.85355 8.64644C5.75979 8.55267 5.63261 8.5 5.5 8.5ZM10 5.2425V9.5C9.99921 10.1628 9.73556 10.7982 9.26689 11.2669C8.79822 11.7356 8.1628 11.9992 7.5 12H2.5C1.8372 11.9992 1.20178 11.7356 0.73311 11.2669C0.264441 10.7982 0.000793929 10.1628 0 9.5V2.5C0.000793929 1.8372 0.264441 1.20178 0.73311 0.733106C1.20178 0.264437 1.8372 0.000790194 2.5 -3.73445e-06H4.7575C5.21731 -0.0011872 5.67279 0.0887901 6.09761 0.264726C6.52243 0.440662 6.90816 0.699065 7.2325 1.025L8.9745 2.768C9.30062 3.09212 9.55918 3.47772 9.73521 3.90248C9.91125 4.32724 10.0012 4.78271 10 5.2425ZM6.5255 1.732C6.36814 1.57958 6.19147 1.44846 6 1.342V3.5C6 3.6326 6.05268 3.75978 6.14645 3.85355C6.24022 3.94732 6.36739 4 6.5 4H8.658C8.55148 3.80859 8.42018 3.63207 8.2675 3.475L6.5255 1.732ZM9 5.2425C9 5.16 8.984 5.081 8.9765 5H6.5C6.10218 5 5.72064 4.84196 5.43934 4.56066C5.15804 4.27935 5 3.89782 5 3.5V1.0235C4.919 1.016 4.8395 0.999996 4.7575 0.999996H2.5C2.10218 0.999996 1.72064 1.15803 1.43934 1.43934C1.15804 1.72064 1 2.10217 1 2.5V9.5C1 9.89782 1.15804 10.2794 1.43934 10.5607C1.72064 10.842 2.10218 11 2.5 11H7.5C7.89783 11 8.27936 10.842 8.56066 10.5607C8.84197 10.2794 9 9.89782 9 9.5V5.2425Z" fill="#1FBA14"/>
</svg>
