<svg width="14" height="19" viewBox="0 0 14 19" fill="none" xmlns="http://www.w3.org/2000/svg">
<path d="M2 0.75C1.13978 0.75 0.4375 1.45228 0.4375 2.3125V16.6875C0.4375 17.5477 1.13978 18.25 2 18.25H12C12.8602 18.25 13.5625 17.5477 13.5625 16.6875V5.75H9.8125C9.12541 5.75 8.5625 5.18709 8.5625 4.5V0.75H2ZM9.1875 0.897095V4.5C9.1875 4.85166 9.46084 5.125 9.8125 5.125H13.3556C13.3237 5.08079 13.2907 5.03726 13.2524 4.99805L9.41089 1.06494C9.34439 0.996863 9.2677 0.943569 9.1875 0.897095ZM3.5625 7.625H10.4375C10.5204 7.625 10.5999 7.65792 10.6585 7.71653C10.7171 7.77513 10.75 7.85462 10.75 7.9375C10.75 8.02038 10.7171 8.09987 10.6585 8.15847C10.5999 8.21708 10.5204 8.25 10.4375 8.25H3.5625C3.47962 8.25 3.40014 8.21708 3.34153 8.15847C3.28293 8.09987 3.25 8.02038 3.25 7.9375C3.25 7.85462 3.28293 7.77513 3.34153 7.71653C3.40014 7.65792 3.47962 7.625 3.5625 7.625ZM3.5625 10.125H10.4375C10.5204 10.125 10.5999 10.1579 10.6585 10.2165C10.7171 10.2751 10.75 10.3546 10.75 10.4375C10.75 10.5204 10.7171 10.5999 10.6585 10.6585C10.5999 10.7171 10.5204 10.75 10.4375 10.75H3.5625C3.47962 10.75 3.40014 10.7171 3.34153 10.6585C3.28293 10.5999 3.25 10.5204 3.25 10.4375C3.25 10.3546 3.28293 10.2751 3.34153 10.2165C3.40014 10.1579 3.47962 10.125 3.5625 10.125ZM3.5625 12.625H10.4375C10.5204 12.625 10.5999 12.6579 10.6585 12.7165C10.7171 12.7751 10.75 12.8546 10.75 12.9375C10.75 13.0204 10.7171 13.0999 10.6585 13.1585C10.5999 13.2171 10.5204 13.25 10.4375 13.25H3.5625C3.47962 13.25 3.40014 13.2171 3.34153 13.1585C3.28293 13.0999 3.25 13.0204 3.25 12.9375C3.25 12.8546 3.28293 12.7751 3.34153 12.7165C3.40014 12.6579 3.47962 12.625 3.5625 12.625ZM3.5625 15.125H10.4375C10.5204 15.125 10.5999 15.1579 10.6585 15.2165C10.7171 15.2751 10.75 15.3546 10.75 15.4375C10.75 15.5204 10.7171 15.5999 10.6585 15.6585C10.5999 15.7171 10.5204 15.75 10.4375 15.75H3.5625C3.47962 15.75 3.40014 15.7171 3.34153 15.6585C3.28293 15.5999 3.25 15.5204 3.25 15.4375C3.25 15.3546 3.28293 15.2751 3.34153 15.2165C3.40014 15.1579 3.47962 15.125 3.5625 15.125Z" fill="#1FBA14"/>
</svg>
