<svg width="44" height="44" viewBox="0 0 44 44" fill="none" xmlns="http://www.w3.org/2000/svg">
<rect x="0.69458" width="42.6106" height="44" rx="6" fill="#F4FCF3"/>
<path d="M22.0003 18.4286C20.031 18.4286 18.4288 20.0307 18.4288 22C18.4288 23.9693 20.031 25.5714 22.0003 25.5714C23.9695 25.5714 25.5717 23.9693 25.5717 22C25.5717 20.0307 23.9695 18.4286 22.0003 18.4286ZM22.0003 24.1429C20.8188 24.1429 19.8574 23.1814 19.8574 22C19.8574 20.8186 20.8188 19.8571 22.0003 19.8571C23.1817 19.8571 24.1431 20.8186 24.1431 22C24.1431 23.1814 23.1817 24.1429 22.0003 24.1429Z" fill="#1FBA14"/>
<path d="M30.2331 23.4543L29.8574 23.2371C29.4102 22.9793 29.1431 22.5164 29.1431 22C29.1431 21.4836 29.4102 21.0207 29.8574 20.7629L30.2331 20.5457C31.2588 19.9536 31.6095 18.6443 31.0174 17.6186L30.3031 16.3814C29.7124 15.3579 28.3988 15.0064 27.376 15.5971L27.0002 15.8136C26.5531 16.0721 26.0181 16.0721 25.5717 15.8136C25.1245 15.555 24.8574 15.0929 24.8574 14.5764V14.1429C24.8574 12.9614 23.896 12 22.7145 12H21.286C20.1045 12 19.1431 12.9614 19.1431 14.1429V14.5771C19.1431 15.0936 18.876 15.5557 18.4288 15.8143C17.9817 16.0721 17.4474 16.0729 17.0003 15.8143L16.6245 15.5971C15.6017 15.0064 14.2881 15.3579 13.6967 16.3814L12.9824 17.6186C12.3903 18.6443 12.741 19.9536 13.7667 20.5457L14.1431 20.7629C14.5903 21.0207 14.8574 21.4836 14.8574 22C14.8574 22.5164 14.5903 22.9793 14.1431 23.2371L13.7674 23.4543C12.7417 24.0464 12.391 25.3557 12.9831 26.3814L13.6974 27.6186C14.2888 28.6421 15.6024 28.9936 16.6245 28.4029L17.0003 28.1864C17.4474 27.9271 17.9817 27.9286 18.4288 28.1864C18.876 28.445 19.1431 28.9071 19.1431 29.4236V29.8571C19.1431 31.0386 20.1045 32 21.286 32H22.7145C23.896 32 24.8574 31.0386 24.8574 29.8571V29.4229C24.8574 28.9064 25.1245 28.4443 25.5717 28.1857C26.0181 27.9279 26.5531 27.9271 27.0002 28.1857L27.376 28.4029C28.3988 28.9929 29.7124 28.6414 30.3031 27.6186L31.0174 26.3814C31.6095 25.3557 31.2588 24.0464 30.2331 23.4543ZM29.7803 25.6671L29.066 26.9043C28.8681 27.2486 28.4274 27.3621 28.0902 27.1657L27.7145 26.9486C26.8195 26.4321 25.7517 26.4321 24.8574 26.9486C23.9631 27.465 23.4288 28.39 23.4288 29.4229V29.8571C23.4288 30.2507 23.1081 30.5714 22.7145 30.5714H21.286C20.8924 30.5714 20.5717 30.2507 20.5717 29.8571V29.4229C20.5717 28.39 20.0374 27.465 19.1431 26.9486C18.2488 26.4321 17.1803 26.4321 16.286 26.9486L15.9103 27.1657C15.5695 27.3643 15.1317 27.2457 14.9345 26.9043L14.2203 25.6671C14.0203 25.3207 14.1445 24.8857 14.4817 24.6914L14.8574 24.4743C15.7517 23.9579 16.286 23.0329 16.286 22C16.286 20.9671 15.7517 20.0421 14.8574 19.5257L14.4817 19.3086C14.1453 19.115 14.0203 18.6793 14.2203 18.3329L14.9345 17.0957C15.1353 16.7471 15.5781 16.6414 15.9103 16.8343L16.286 17.0514C17.181 17.5679 18.2488 17.5679 19.1431 17.0514C20.0374 16.535 20.5717 15.61 20.5717 14.5771V14.1429C20.5717 13.7493 20.8924 13.4286 21.286 13.4286H22.7145C23.1081 13.4286 23.4288 13.7493 23.4288 14.1429V14.5771C23.4288 15.61 23.9631 16.535 24.8574 17.0514C25.7517 17.5679 26.8203 17.5679 27.7145 17.0514L28.0902 16.8343C28.4281 16.6393 28.8667 16.75 29.066 17.0957L29.7803 18.3329C29.9802 18.6793 29.856 19.1143 29.5188 19.3086L29.1431 19.5257C28.2488 20.0421 27.7145 20.9671 27.7145 22C27.7145 23.0329 28.2488 23.9579 29.1431 24.4743L29.5188 24.6914C29.856 24.8857 29.9802 25.3207 29.7803 25.6671Z" fill="#1FBA14"/>
</svg>
