<svg width="45" height="44" viewBox="0 0 45 44" fill="none" xmlns="http://www.w3.org/2000/svg">
<rect x="0.5" width="44" height="44" rx="6" fill="#F4FCF3"/>
<g clip-path="url(#clip0_36_251)">
<path d="M26.6667 23.6667C26.6667 23.8877 26.579 24.0996 26.4227 24.2559C26.2664 24.4122 26.0544 24.5 25.8334 24.5H19.1667C18.9457 24.5 18.7338 24.4122 18.5775 24.2559C18.4212 24.0996 18.3334 23.8877 18.3334 23.6667C18.3334 23.4457 18.4212 23.2337 18.5775 23.0774C18.7338 22.9211 18.9457 22.8333 19.1667 22.8333H25.8334C26.0544 22.8333 26.2664 22.9211 26.4227 23.0774C26.579 23.2337 26.6667 23.4457 26.6667 23.6667ZM23.3334 26.1667H19.1667C18.9457 26.1667 18.7338 26.2545 18.5775 26.4107C18.4212 26.567 18.3334 26.779 18.3334 27C18.3334 27.221 18.4212 27.433 18.5775 27.5893C18.7338 27.7455 18.9457 27.8333 19.1667 27.8333H23.3334C23.5544 27.8333 23.7664 27.7455 23.9227 27.5893C24.0789 27.433 24.1667 27.221 24.1667 27C24.1667 26.779 24.0789 26.567 23.9227 26.4107C23.7664 26.2545 23.5544 26.1667 23.3334 26.1667ZM30.8334 20.7375V27.8333C30.8321 28.938 30.3927 29.997 29.6116 30.7782C28.8305 31.5593 27.7714 31.9987 26.6667 32H18.3334C17.2288 31.9987 16.1697 31.5593 15.3886 30.7782C14.6075 29.997 14.1681 28.938 14.1667 27.8333V16.1667C14.1681 15.062 14.6075 14.003 15.3886 13.2219C16.1697 12.4407 17.2288 12.0013 18.3334 12H22.0959C22.8623 11.998 23.6214 12.148 24.3294 12.4412C25.0375 12.7344 25.6804 13.1651 26.2209 13.7083L29.1242 16.6133C29.6678 17.1535 30.0987 17.7962 30.3921 18.5041C30.6855 19.2121 30.8355 19.9712 30.8334 20.7375ZM25.0426 14.8867C24.7803 14.6326 24.4859 14.4141 24.1667 14.2367V17.8333C24.1667 18.0543 24.2545 18.2663 24.4108 18.4226C24.5671 18.5789 24.7791 18.6667 25.0001 18.6667H28.5967C28.4192 18.3477 28.2004 18.0535 27.9459 17.7917L25.0426 14.8867ZM29.1667 20.7375C29.1667 20.6 29.1401 20.4683 29.1276 20.3333H25.0001C24.337 20.3333 23.7012 20.0699 23.2323 19.6011C22.7635 19.1323 22.5001 18.4964 22.5001 17.8333V13.7058C22.3651 13.6933 22.2326 13.6667 22.0959 13.6667H18.3334C17.6704 13.6667 17.0345 13.9301 16.5656 14.3989C16.0968 14.8677 15.8334 15.5036 15.8334 16.1667V27.8333C15.8334 28.4964 16.0968 29.1323 16.5656 29.6011C17.0345 30.0699 17.6704 30.3333 18.3334 30.3333H26.6667C27.3298 30.3333 27.9657 30.0699 28.4345 29.6011C28.9034 29.1323 29.1667 28.4964 29.1667 27.8333V20.7375Z" fill="#1FBA14"/>
</g>
<defs>
<clipPath id="clip0_36_251">
<rect width="20" height="20" fill="white" transform="translate(12.5 12)"/>
</clipPath>
</defs>
</svg>
