<svg width="45" height="44" viewBox="0 0 45 44" fill="none" xmlns="http://www.w3.org/2000/svg">
<rect x="0.498779" width="44.0023" height="44" rx="6" fill="#F4FCF3"/>
<path d="M31.7317 21.2296H26.3465C24.6586 21.2296 23.2692 22.6189 23.2692 24.3068C23.2692 25.9947 24.6586 27.3841 26.3465 27.3841H29.4238V29.6921C29.4238 30.1144 29.0768 30.4614 28.6545 30.4614H16.3454C15.0791 30.4614 14.0374 29.4197 14.0374 28.1534V16.6136C14.0374 15.3474 15.0791 14.3057 16.3454 14.3057H17.884C18.3064 14.3057 18.6533 13.9587 18.6533 13.5364C18.6533 13.114 18.3064 12.7671 17.884 12.7671H16.3454C14.2351 12.7671 12.4988 14.5034 12.4988 16.6136V28.1534C12.4988 30.2637 14.2351 32 16.3454 32H28.6545C29.9208 32 30.9624 30.9583 30.9624 29.6921V27.3841H31.7317C32.1541 27.3841 32.501 27.0371 32.501 26.6148V21.9989C32.501 21.5765 32.1541 21.2296 31.7317 21.2296ZM30.9624 25.8455H26.3465C25.5026 25.8455 24.8079 25.1508 24.8079 24.3068C24.8079 23.4629 25.5026 22.7682 26.3465 22.7682H30.9624V25.8455Z" fill="#1FBA14"/>
<path d="M16.0684 15.8982C15.2098 16.2728 15.4937 17.383 16.3453 17.383H28.6544C29.0768 17.383 29.4237 17.7299 29.4237 18.1523V18.9216C29.4237 19.344 29.7707 19.6909 30.193 19.6909C30.6154 19.6909 30.9624 19.344 30.9624 18.9216V18.1523C30.9616 17.5407 30.7185 16.9537 30.2854 16.5213C29.853 16.0882 29.266 15.8451 28.6544 15.8443H28.4082L27.0619 12.4824C26.9057 12.0939 26.4595 11.9 26.0695 12.0516L16.0684 15.8982ZM26.7465 15.8443H20.4919L25.9156 13.7595L26.7465 15.8443Z" fill="#1FBA14"/>
</svg>
