<svg width="15" height="15" viewBox="0 0 15 15" fill="none" xmlns="http://www.w3.org/2000/svg">
    <g clip-path="url(#clip0_3_957)">
        <path d="M7.38586 5.12439L9.5331 7.27163L9.54333 7.15916C9.54333 6.03099 8.6265 5.11417 7.49834 5.11417L7.38586 5.12439Z" fill="#CECFD3"/>
        <path d="M7.49825 3.75087C9.37964 3.75087 10.9066 5.27781 10.9066 7.1592C10.9066 7.59887 10.818 8.01809 10.6646 8.40322L12.6585 10.3971C13.6878 9.53819 14.4989 8.42709 15 7.1592C13.8173 4.16671 10.91 2.04672 7.49828 2.04672C6.54394 2.04672 5.63053 2.21713 4.78186 2.52388L6.25425 3.99285C6.63935 3.84289 7.05857 3.75087 7.49825 3.75087Z" fill="#CECFD3"/>
        <path d="M0.681653 1.89332L2.23584 3.44751L2.54601 3.75768C1.42127 4.63703 0.531697 5.80609 0 7.15917C1.17929 10.1517 4.08998 12.2716 7.49831 12.2716C8.5549 12.2716 9.56375 12.0671 10.4874 11.6956L10.7771 11.9853L12.7642 13.9758L13.6333 13.1101L1.55077 1.0242L0.681653 1.89332ZM4.45127 5.65952L5.50444 6.71269C5.47377 6.85926 5.45332 7.0058 5.45332 7.15917C5.45332 8.28733 6.37014 9.20416 7.49831 9.20416C7.65168 9.20416 7.79825 9.18371 7.9414 9.15303L8.99457 10.2062C8.54125 10.4312 8.03684 10.5675 7.49831 10.5675C5.61692 10.5675 4.08998 9.04056 4.08998 7.15917C4.08998 6.62067 4.22632 6.11622 4.45127 5.65952Z" fill="#CECFD3"/>
    </g>
    <defs>
        <clipPath id="clip0_3_957">
            <rect width="15" height="15" fill="white"/>
        </clipPath>
    </defs>
</svg>