<svg width="12" height="12" viewBox="0 0 12 12" fill="none" xmlns="http://www.w3.org/2000/svg">
<path d="M6 5C5.60218 5 5.22064 4.84197 4.93934 4.56066C4.65804 4.27936 4.5 3.89783 4.5 3.5C4.5 3.10218 4.65804 2.72064 4.93934 2.43934C5.22064 2.15804 5.60218 2 6 2C6.39782 2 6.77936 2.15804 7.06066 2.43934C7.34196 2.72064 7.5 3.10218 7.5 3.5C7.5 3.89783 7.34196 4.27936 7.06066 4.56066C6.77936 4.84197 6.39782 5 6 5ZM4.484 7.6245C4.58682 7.30327 4.78903 7.02301 5.06147 6.82416C5.3339 6.62531 5.66247 6.51815 5.99975 6.51815C6.33704 6.51815 6.6656 6.62531 6.93803 6.82416C7.21047 7.02301 7.41268 7.30327 7.5155 7.6245C7.54865 7.753 7.63149 7.86306 7.7458 7.93048C7.8601 7.9979 7.9965 8.01715 8.125 7.984C8.2535 7.95085 8.36356 7.86801 8.43098 7.75371C8.4984 7.6394 8.51765 7.503 8.4845 7.3745C7.829 4.901 4.1695 4.902 3.516 7.3745C3.49795 7.43859 3.49288 7.50563 3.50109 7.5717C3.50929 7.63777 3.53061 7.70154 3.5638 7.75926C3.59698 7.81698 3.64136 7.86749 3.69432 7.90783C3.74729 7.94817 3.80778 7.97753 3.87224 7.99418C3.93671 8.01083 4.00385 8.01443 4.06972 8.00479C4.1356 7.99514 4.19888 7.97243 4.25587 7.938C4.31285 7.90356 4.36238 7.8581 4.40156 7.80426C4.44073 7.75043 4.46876 7.68931 4.484 7.6245ZM6.0045 11.8325C5.75782 11.8326 5.51971 11.7421 5.3355 11.578L3.4615 10H2C1.46957 10 0.960859 9.78929 0.585786 9.41421C0.210714 9.03914 0 8.53043 0 8V2C0 1.46957 0.210714 0.960859 0.585786 0.585787C0.960859 0.210714 1.46957 0 2 0L10 0C10.5304 0 11.0391 0.210714 11.4142 0.585787C11.7893 0.960859 12 1.46957 12 2V8C12 8.53043 11.7893 9.03914 11.4142 9.41421C11.0391 9.78929 10.5304 10 10 10H8.5735L6.65 11.59C6.4718 11.7472 6.24211 11.8335 6.0045 11.8325ZM2 1C1.73478 1 1.48043 1.10536 1.29289 1.29289C1.10536 1.48043 1 1.73478 1 2V8C1 8.26522 1.10536 8.51957 1.29289 8.70711C1.48043 8.89464 1.73478 9 2 9H3.6445C3.76233 9 3.87636 9.04162 3.9665 9.1175L5.9895 10.8225L8.0755 9.1145C8.16513 9.04047 8.27775 8.99998 8.394 9H10C10.2652 9 10.5196 8.89464 10.7071 8.70711C10.8946 8.51957 11 8.26522 11 8V2C11 1.73478 10.8946 1.48043 10.7071 1.29289C10.5196 1.10536 10.2652 1 10 1H2Z" fill="#1FBA14"/>
</svg>
