<svg width="12" height="12" viewBox="0 0 12 12" fill="none" xmlns="http://www.w3.org/2000/svg">
<g clip-path="url(#clip0_3_825)">
<path d="M6.49999 0.500005C6.49999 0.367397 6.55267 0.24022 6.64644 0.146452C6.74021 0.0526835 6.86739 5.02693e-06 6.99999 5.02693e-06C8.32563 0.00146083 9.59655 0.528713 10.5339 1.46608C11.4713 2.40345 11.9985 3.67437 12 5.00001C12 5.13261 11.9473 5.25979 11.8535 5.35356C11.7598 5.44733 11.6326 5.50001 11.5 5.50001C11.3674 5.50001 11.2402 5.44733 11.1464 5.35356C11.0527 5.25979 11 5.13261 11 5.00001C10.9988 3.93951 10.577 2.92278 9.8271 2.17289C9.07722 1.42301 8.06049 1.0012 6.99999 1.00001C6.86739 1.00001 6.74021 0.947327 6.64644 0.853559C6.55267 0.75979 6.49999 0.632613 6.49999 0.500005ZM6.99999 3.00001C7.53043 3.00001 8.03913 3.21072 8.41421 3.58579C8.78928 3.96086 8.99999 4.46957 8.99999 5.00001C8.99999 5.13261 9.05267 5.25979 9.14644 5.35356C9.24021 5.44733 9.36738 5.50001 9.49999 5.50001C9.6326 5.50001 9.75978 5.44733 9.85355 5.35356C9.94732 5.25979 9.99999 5.13261 9.99999 5.00001C9.9992 4.2046 9.68287 3.442 9.12044 2.87956C8.558 2.31713 7.7954 2.0008 6.99999 2.00001C6.86739 2.00001 6.74021 2.05268 6.64644 2.14645C6.55267 2.24022 6.49999 2.3674 6.49999 2.50001C6.49999 2.63261 6.55267 2.75979 6.64644 2.85356C6.74021 2.94733 6.86739 3.00001 6.99999 3.00001ZM11.5465 8.36951C11.8362 8.66006 11.999 9.05366 11.999 9.46401C11.999 9.87435 11.8362 10.2679 11.5465 10.5585L11.0915 11.083C6.99649 15.0035 -2.96851 5.04101 0.891493 0.933005L1.46649 0.433005C1.75738 0.151344 2.14746 -0.00447043 2.55235 -0.000727552C2.95723 0.00301533 3.34437 0.166014 3.62999 0.453005C3.64549 0.468505 4.57199 1.67201 4.57199 1.67201C4.84691 1.96082 4.99995 2.34447 4.99929 2.74321C4.99864 3.14194 4.84435 3.52509 4.56849 3.81301L3.98949 4.54101C4.30992 5.31956 4.78102 6.02713 5.37575 6.62305C5.97047 7.21898 6.67709 7.69151 7.45499 8.01351L8.18749 7.43101C8.47545 7.15536 8.85853 7.00125 9.25714 7.00069C9.65576 7.00014 10.0393 7.15317 10.328 7.42801C10.328 7.42801 11.531 8.35401 11.5465 8.36951ZM10.8585 9.09651C10.8585 9.09651 9.66199 8.17601 9.64649 8.16051C9.54349 8.05837 9.4043 8.00107 9.25924 8.00107C9.11419 8.00107 8.975 8.05837 8.87199 8.16051C8.85849 8.17451 7.84999 8.97801 7.84999 8.97801C7.78203 9.0321 7.70115 9.06756 7.61532 9.08089C7.52948 9.09421 7.44166 9.08495 7.36049 9.05401C6.35272 8.67879 5.43736 8.09137 4.67641 7.33155C3.91546 6.57172 3.32669 5.65722 2.94999 4.65001C2.91659 4.56773 2.9057 4.47805 2.91844 4.39017C2.93119 4.3023 2.9671 4.2194 3.02249 4.15001C3.02249 4.15001 3.82599 3.14101 3.83949 3.12801C3.94163 3.025 3.99893 2.88581 3.99893 2.74076C3.99893 2.5957 3.94163 2.45651 3.83949 2.35351C3.82399 2.33851 2.90349 1.14101 2.90349 1.14101C2.79894 1.04726 2.66249 0.997053 2.52212 1.00068C2.38174 1.0043 2.24806 1.06149 2.14849 1.16051L1.57349 1.66051C-1.24751 5.05251 7.38799 13.209 10.3605 10.4L10.816 9.87501C10.9227 9.77614 10.9868 9.63964 10.9948 9.49436C11.0027 9.34908 10.9538 9.20641 10.8585 9.09651Z" fill="#1FBA14"/>
</g>
<defs>
<clipPath id="clip0_3_825">
<rect width="12" height="12" fill="white"/>
</clipPath>
</defs>
</svg>
