<svg width="20" height="20" viewBox="0 0 20 20" fill="none" xmlns="http://www.w3.org/2000/svg">
<g clip-path="url(#clip0_142_1371)">
<path d="M18.934 8.10165L3.0277 0.404619C1.97995 -0.103199 0.718946 0.334497 0.211086 1.38225C-0.047867 1.9165 -0.0695253 2.53517 0.151423 3.08626L2.63629 9.29628H20C19.8172 8.7724 19.4337 8.34265 18.934 8.10165Z" fill="#1FBA14"/>
<path d="M2.63593 10.7017L0.151065 16.9131C-0.280126 17.9976 0.249433 19.2263 1.33387 19.6575C1.5794 19.7551 1.84112 19.8058 2.10534 19.807C2.42461 19.807 2.73977 19.7349 3.0273 19.5962L18.9336 11.8963C19.4333 11.6553 19.8168 11.2256 19.9996 10.7017H2.63593Z" fill="#1FBA14"/>
</g>
<defs>
<clipPath id="clip0_142_1371">
<rect width="20" height="20" fill="white"/>
</clipPath>
</defs>
</svg>
