<svg width="19" height="20" viewBox="0 0 19 20" fill="none" xmlns="http://www.w3.org/2000/svg">
    <path class="hover" d="M9.55226 6.42857C7.58297 6.42857 5.98083 8.03071 5.98083 10C5.98083 11.9693 7.58297 13.5714 9.55226 13.5714C11.5215 13.5714 13.1237 11.9693 13.1237 10C13.1237 8.03071 11.5215 6.42857 9.55226 6.42857ZM9.55226 12.1429C8.37083 12.1429 7.4094 11.1814 7.4094 10C7.4094 8.81857 8.37083 7.85714 9.55226 7.85714C10.7337 7.85714 11.6951 8.81857 11.6951 10C11.6951 11.1814 10.7337 12.1429 9.55226 12.1429Z" fill="black"/>
    <path class="hover" d="M17.7851 11.4543L17.4094 11.2371C16.9623 10.9793 16.6951 10.5164 16.6951 10C16.6951 9.48357 16.9623 9.02071 17.4094 8.76286L17.7851 8.54571C18.8108 7.95357 19.1615 6.64429 18.5694 5.61857L17.8551 4.38143C17.2644 3.35786 15.9508 3.00643 14.928 3.59714L14.5523 3.81357C14.1051 4.07214 13.5701 4.07214 13.1237 3.81357C12.6765 3.555 12.4094 3.09286 12.4094 2.57643V2.14286C12.4094 0.961429 11.448 0 10.2665 0H8.83797C7.65654 0 6.69511 0.961429 6.69511 2.14286V2.57714C6.69511 3.09357 6.42797 3.55571 5.98083 3.81429C5.53368 4.07214 4.9994 4.07286 4.55226 3.81429L4.17654 3.59714C3.15368 3.00643 1.84011 3.35786 1.24868 4.38143L0.534399 5.61857C-0.057744 6.64429 0.29297 7.95357 1.31868 8.54571L1.69511 8.76286C2.14226 9.02071 2.4094 9.48357 2.4094 10C2.4094 10.5164 2.14226 10.9793 1.69511 11.2371L1.3194 11.4543C0.293685 12.0464 -0.0570298 13.3557 0.535113 14.3814L1.2494 15.6186C1.84083 16.6421 3.1544 16.9936 4.17654 16.4029L4.55226 16.1864C4.9994 15.9271 5.53368 15.9286 5.98083 16.1864C6.42797 16.445 6.69511 16.9071 6.69511 17.4236V17.8571C6.69511 19.0386 7.65654 20 8.83797 20H10.2665C11.448 20 12.4094 19.0386 12.4094 17.8571V17.4229C12.4094 16.9064 12.6765 16.4443 13.1237 16.1857C13.5701 15.9279 14.1051 15.9271 14.5523 16.1857L14.928 16.4029C15.9508 16.9929 17.2644 16.6414 17.8551 15.6186L18.5694 14.3814C19.1615 13.3557 18.8108 12.0464 17.7851 11.4543ZM17.3323 13.6671L16.618 14.9043C16.4201 15.2486 15.9794 15.3621 15.6423 15.1657L15.2665 14.9486C14.3715 14.4321 13.3037 14.4321 12.4094 14.9486C11.5151 15.465 10.9808 16.39 10.9808 17.4229V17.8571C10.9808 18.2507 10.6601 18.5714 10.2665 18.5714H8.83797C8.4444 18.5714 8.12368 18.2507 8.12368 17.8571V17.4229C8.12368 16.39 7.5894 15.465 6.69511 14.9486C5.80083 14.4321 4.73226 14.4321 3.83797 14.9486L3.46226 15.1657C3.12154 15.3643 2.68368 15.2457 2.48654 14.9043L1.77226 13.6671C1.57226 13.3207 1.69654 12.8857 2.03368 12.6914L2.4094 12.4743C3.30368 11.9579 3.83797 11.0329 3.83797 10C3.83797 8.96714 3.30368 8.04214 2.4094 7.52571L2.03368 7.30857C1.69726 7.115 1.57226 6.67929 1.77226 6.33286L2.48654 5.09571C2.68726 4.74714 3.13011 4.64143 3.46226 4.83429L3.83797 5.05143C4.73297 5.56786 5.80083 5.56786 6.69511 5.05143C7.5894 4.535 8.12368 3.61 8.12368 2.57714V2.14286C8.12368 1.74929 8.4444 1.42857 8.83797 1.42857H10.2665C10.6601 1.42857 10.9808 1.74929 10.9808 2.14286V2.57714C10.9808 3.61 11.5151 4.535 12.4094 5.05143C13.3037 5.56786 14.3723 5.56786 15.2665 5.05143L15.6423 4.83429C15.9801 4.63929 16.4187 4.75 16.618 5.09571L17.3323 6.33286C17.5323 6.67929 17.408 7.11429 17.0708 7.30857L16.6951 7.52571C15.8008 8.04214 15.2665 8.96714 15.2665 10C15.2665 11.0329 15.8008 11.9579 16.6951 12.4743L17.0708 12.6914C17.408 12.8857 17.5323 13.3207 17.3323 13.6671Z" fill="black"/>
</svg>
