<svg width="15" height="15" viewBox="0 0 15 15" fill="none" xmlns="http://www.w3.org/2000/svg">
<g clip-path="url(#clip0_1_150)">
<path d="M15 6.25V11.875C14.999 12.7035 14.6694 13.4978 14.0836 14.0836C13.4978 14.6694 12.7035 14.999 11.875 15H3.125C2.2965 14.999 1.50222 14.6694 0.916387 14.0836C0.330551 13.4978 0.000992411 12.7035 0 11.875L0 5C0.000992411 4.1715 0.330551 3.37722 0.916387 2.79139C1.50222 2.20555 2.2965 1.87599 3.125 1.875H8.125C8.29076 1.875 8.44973 1.94085 8.56694 2.05806C8.68415 2.17527 8.75 2.33424 8.75 2.5C8.75 2.66576 8.68415 2.82473 8.56694 2.94194C8.44973 3.05915 8.29076 3.125 8.125 3.125H3.125C2.78513 3.12594 2.45195 3.21955 2.16132 3.39575C1.8707 3.57196 1.63362 3.82409 1.47563 4.125L6.17375 8.82375C6.52606 9.17442 7.00292 9.37129 7.5 9.37129C7.99708 9.37129 8.47394 9.17442 8.82625 8.82375L11.2144 6.4375C11.3323 6.32365 11.4901 6.26065 11.654 6.26208C11.8179 6.2635 11.9746 6.32923 12.0905 6.44511C12.2064 6.56099 12.2721 6.71775 12.2735 6.88162C12.275 7.0455 12.212 7.20337 12.0981 7.32125L9.71 9.71C9.12328 10.295 8.32854 10.6235 7.5 10.6235C6.67146 10.6235 5.87672 10.295 5.29 9.71L1.25 5.66937V11.875C1.25 12.3723 1.44754 12.8492 1.79917 13.2008C2.15081 13.5525 2.62772 13.75 3.125 13.75H11.875C12.3723 13.75 12.8492 13.5525 13.2008 13.2008C13.5525 12.8492 13.75 12.3723 13.75 11.875V6.25C13.75 6.08424 13.8158 5.92527 13.9331 5.80806C14.0503 5.69085 14.2092 5.625 14.375 5.625C14.5408 5.625 14.6997 5.69085 14.8169 5.80806C14.9342 5.92527 15 6.08424 15 6.25ZM10.625 3.125H11.875V4.375C11.875 4.54076 11.9408 4.69973 12.0581 4.81694C12.1753 4.93415 12.3342 5 12.5 5C12.6658 5 12.8247 4.93415 12.9419 4.81694C13.0592 4.69973 13.125 4.54076 13.125 4.375V3.125H14.375C14.5408 3.125 14.6997 3.05915 14.8169 2.94194C14.9342 2.82473 15 2.66576 15 2.5C15 2.33424 14.9342 2.17527 14.8169 2.05806C14.6997 1.94085 14.5408 1.875 14.375 1.875H13.125V0.625C13.125 0.45924 13.0592 0.300269 12.9419 0.183058C12.8247 0.065848 12.6658 0 12.5 0C12.3342 0 12.1753 0.065848 12.0581 0.183058C11.9408 0.300269 11.875 0.45924 11.875 0.625V1.875H10.625C10.4592 1.875 10.3003 1.94085 10.1831 2.05806C10.0658 2.17527 10 2.33424 10 2.5C10 2.66576 10.0658 2.82473 10.1831 2.94194C10.3003 3.05915 10.4592 3.125 10.625 3.125Z" fill="#1FBA14"/>
</g>
<defs>
<clipPath id="clip0_1_150">
<rect width="15" height="15" fill="white"/>
</clipPath>
</defs>
</svg>
