<svg width="20" height="20" viewBox="0 0 20 20" fill="none" xmlns="http://www.w3.org/2000/svg">
	<g clip-path="url(#clip0_1_432)">
		<path d="M15.4459 15.555L16.6243 16.7333L13.9576 19.4C13.571 19.7852 13.0475 20.0015 12.5018 20.0015C11.956 20.0015 11.4325 19.7852 11.0459 19.4L8.37928 16.7333L9.55761 15.555L11.6668 17.6667V10.8333H13.3334V17.6667L15.4459 15.555ZM14.8251 6.00751C14.4533 4.41664 13.5102 3.01769 12.175 2.07626C10.8398 1.13482 9.20537 0.716456 7.58204 0.900585C5.95871 1.08471 4.4595 1.85852 3.36906 3.07508C2.27861 4.29165 1.67285 5.86628 1.66678 7.50001C1.66596 8.56534 1.9233 9.61502 2.41678 10.5592C1.51772 11.041 0.805443 11.8094 0.393126 12.7423C-0.0191916 13.6753 -0.107903 14.7193 0.141086 15.7085C0.390075 16.6976 0.962482 17.5752 1.76736 18.2018C2.57224 18.8283 3.56343 19.168 4.58344 19.1667H8.45178L6.78511 17.5H4.58344C3.8738 17.5021 3.18785 17.2448 2.65471 16.7764C2.12157 16.3081 1.77801 15.661 1.68871 14.957C1.5994 14.253 1.7705 13.5406 2.16981 12.9539C2.56911 12.3673 3.16908 11.9468 3.85678 11.7717L5.05428 11.4625L4.31844 10.4692C3.67773 9.61198 3.33212 8.57019 3.33344 7.50001C3.34433 6.2393 3.83109 5.02924 4.69623 4.11216C5.56138 3.19508 6.74103 2.63868 7.99897 2.55439C9.25691 2.4701 10.5002 2.86413 11.48 3.65759C12.4598 4.45105 13.1036 5.58535 13.2826 6.83334L13.3659 7.46501L13.9984 7.54834C14.8376 7.65964 15.6347 7.9826 16.3146 8.48682C16.9946 8.99104 17.5351 9.65995 17.8853 10.4306C18.2355 11.2013 18.3839 12.0484 18.3165 12.8922C18.2491 13.736 17.9682 14.5488 17.5001 15.2542L18.6918 16.4458C19.3497 15.5579 19.7759 14.52 19.9317 13.4259C20.0875 12.3319 19.9681 11.2162 19.5842 10.1799C19.2003 9.14365 18.5641 8.21942 17.7332 7.4909C16.9022 6.76237 15.9027 6.25253 14.8251 6.00751Z" fill="white"/>
	</g>
	<defs>
		<clipPath id="clip0_1_432">
			<rect width="20" height="20" fill="white"/>
		</clipPath>
	</defs>
</svg>