<svg width="30" height="30" viewBox="0 0 30 30" fill="none" xmlns="http://www.w3.org/2000/svg">
    <g clip-path="url(#clip0_36_1903)">
        <path d="M29.4003 21.8584L18.89 3.65376C17.1733 0.646419 12.8321 0.646419 11.1216 3.65376L0.605129 21.8584C-1.11159 24.8657 1.02505 28.6017 4.48936 28.6017H25.479C28.9433 28.6017 31.117 24.8287 29.4003 21.8584ZM14.9996 24.5631C14.0857 24.5631 13.3261 23.8036 13.3261 22.8896C13.3261 21.9757 14.0857 21.2161 14.9996 21.2161C15.9136 21.2161 16.6731 21.9757 16.6361 22.9329C16.6793 23.8036 15.8765 24.5631 14.9996 24.5631ZM16.5249 13.7441C16.4508 15.0409 16.3705 16.3315 16.2964 17.6283C16.2594 18.0482 16.2594 18.4311 16.2594 18.8449C16.2223 19.5303 15.6851 20.0614 14.9996 20.0614C14.3142 20.0614 13.7831 19.5674 13.7399 18.8819C13.6287 16.8626 13.5114 14.8803 13.4002 12.861C13.3632 12.33 13.3261 11.7927 13.2829 11.2617C13.2829 10.3848 13.7769 9.66227 14.5797 9.43379C15.3825 9.24235 16.1791 9.62522 16.5249 10.3848C16.6422 10.6503 16.6793 10.9158 16.6793 11.2246C16.6422 12.0706 16.562 12.9104 16.5249 13.7441Z" fill="#1FBA14"/>
    </g>
    <defs>
        <clipPath id="clip0_36_1903">
            <rect width="30" height="30" fill="white"/>
        </clipPath>
    </defs>
</svg>
