<svg width="14" height="8" viewBox="0 0 14 8" fill="none" xmlns="http://www.w3.org/2000/svg">
<path d="M4.83267 7.3755L6.76355 5.44461C6.915 5.29309 7.00005 5.08762 7 4.87339C6.99995 4.65917 6.9148 4.45373 6.76328 4.30229C6.61177 4.15084 6.40629 4.06579 6.19206 4.06584C5.97784 4.06589 5.7724 4.15104 5.62096 4.30256L4.30768 5.61584L4.30768 0.881239C4.30768 0.66703 4.22258 0.461594 4.07111 0.310125C3.91965 0.158657 3.71421 0.0735625 3.5 0.0735625C3.28579 0.0735625 3.08036 0.158657 2.92889 0.310125C2.77742 0.461594 2.69232 0.66703 2.69232 0.881239L2.69232 5.61584L1.37904 4.30256C1.2276 4.15104 1.02216 4.06589 0.807935 4.06584C0.593707 4.06579 0.388235 4.15084 0.236718 4.30229C0.0852006 4.45373 4.98675e-05 4.65917 -6.86644e-07 4.87339C-5.12407e-05 5.08762 0.0850022 5.29309 0.236448 5.44461L2.16733 7.3755C2.52111 7.72831 3.00036 7.92643 3.5 7.92643C3.99964 7.92643 4.47888 7.72831 4.83267 7.3755Z" fill="#D9D9D9"/>
<path d="M9.16733 0.624503L7.23645 2.55539C7.085 2.70691 6.99995 2.91238 7 3.12661C7.00005 3.34083 7.0852 3.54627 7.23672 3.69771C7.38823 3.84916 7.59371 3.93421 7.80794 3.93416C8.02216 3.93411 8.2276 3.84896 8.37904 3.69744L9.69232 2.38416L9.69232 7.11876C9.69232 7.33297 9.77742 7.53841 9.92889 7.68987C10.0804 7.84134 10.2858 7.92644 10.5 7.92644C10.7142 7.92644 10.9196 7.84134 11.0711 7.68987C11.2226 7.53841 11.3077 7.33297 11.3077 7.11876L11.3077 2.38416L12.621 3.69744C12.7724 3.84896 12.9778 3.93411 13.1921 3.93416C13.4063 3.93421 13.6118 3.84916 13.7633 3.69771C13.9148 3.54627 13.9999 3.34083 14 3.12661C14.0001 2.91238 13.915 2.70691 13.7636 2.55539L11.8327 0.624503C11.4789 0.271692 10.9996 0.0735674 10.5 0.0735674C10.0004 0.0735674 9.52112 0.271692 9.16733 0.624503Z" fill="#D9D9D9"/>
</svg>
