<svg width="12" height="13" viewBox="0 0 12 13" fill="none" xmlns="http://www.w3.org/2000/svg">
<g clip-path="url(#clip0_149_1332)">
<path d="M6 5.98779C5.60218 5.98779 5.22064 5.82976 4.93934 5.54845C4.65804 5.26715 4.5 4.88562 4.5 4.48779C4.5 4.08997 4.65804 3.70844 4.93934 3.42713C5.22064 3.14583 5.60218 2.98779 6 2.98779C6.39782 2.98779 6.77936 3.14583 7.06066 3.42713C7.34196 3.70844 7.5 4.08997 7.5 4.48779C7.5 4.88562 7.34196 5.26715 7.06066 5.54845C6.77936 5.82976 6.39782 5.98779 6 5.98779ZM4.484 8.61229C4.58682 8.29106 4.78903 8.0108 5.06147 7.81195C5.3339 7.6131 5.66247 7.50595 5.99975 7.50595C6.33704 7.50595 6.6656 7.6131 6.93803 7.81195C7.21047 8.0108 7.41268 8.29106 7.5155 8.61229C7.54865 8.74079 7.63149 8.85086 7.7458 8.91828C7.8601 8.98569 7.9965 9.00495 8.125 8.97179C8.2535 8.93864 8.36356 8.8558 8.43098 8.7415C8.4984 8.6272 8.51765 8.49079 8.4845 8.36229C7.829 5.88879 4.1695 5.88979 3.516 8.36229C3.49795 8.42638 3.49288 8.49342 3.50109 8.5595C3.50929 8.62557 3.53061 8.68933 3.5638 8.74705C3.59698 8.80477 3.64136 8.85529 3.69432 8.89563C3.74729 8.93597 3.80778 8.96532 3.87224 8.98197C3.93671 8.99862 4.00385 9.00223 4.06972 8.99258C4.1356 8.98293 4.19888 8.96023 4.25587 8.92579C4.31285 8.89136 4.36238 8.84589 4.40156 8.79206C4.44073 8.73822 4.46876 8.67711 4.484 8.61229ZM6.0045 12.8203C5.75782 12.8204 5.51971 12.7299 5.3355 12.5658L3.4615 10.9878H2C1.46957 10.9878 0.960859 10.7771 0.585786 10.402C0.210714 10.0269 0 9.51823 0 8.98779V2.98779C0 2.45736 0.210714 1.94865 0.585786 1.57358C0.960859 1.19851 1.46957 0.987793 2 0.987793L10 0.987793C10.5304 0.987793 11.0391 1.19851 11.4142 1.57358C11.7893 1.94865 12 2.45736 12 2.98779V8.98779C12 9.51823 11.7893 10.0269 11.4142 10.402C11.0391 10.7771 10.5304 10.9878 10 10.9878H8.5735L6.65 12.5778C6.4718 12.735 6.24211 12.8212 6.0045 12.8203ZM2 1.98779C1.73478 1.98779 1.48043 2.09315 1.29289 2.28069C1.10536 2.46822 1 2.72258 1 2.98779V8.98779C1 9.25301 1.10536 9.50736 1.29289 9.6949C1.48043 9.88244 1.73478 9.98779 2 9.98779H3.6445C3.76233 9.9878 3.87636 10.0294 3.9665 10.1053L5.9895 11.8103L8.0755 10.1023C8.16513 10.0283 8.27775 9.98777 8.394 9.98779H10C10.2652 9.98779 10.5196 9.88244 10.7071 9.6949C10.8946 9.50736 11 9.25301 11 8.98779V2.98779C11 2.72258 10.8946 2.46822 10.7071 2.28069C10.5196 2.09315 10.2652 1.98779 10 1.98779H2Z" fill="#1FBA14"/>
</g>
<defs>
<clipPath id="clip0_149_1332">
<rect width="12" height="12" fill="white" transform="translate(0 0.987793)"/>
</clipPath>
</defs>
</svg>
