<svg width="25" height="25" viewBox="0 0 25 25" fill="none" xmlns="http://www.w3.org/2000/svg">
<rect width="25" height="25" rx="4" fill="#1FBA14"/>
<g clip-path="url(#clip0_141_1275)">
<path d="M16.5844 16.6662L17.4681 17.55L15.4681 19.55C15.1782 19.8389 14.7856 20.0011 14.3763 20.0011C13.967 20.0011 13.5743 19.8389 13.2844 19.55L11.2844 17.55L12.1681 16.6662L13.75 18.25V13.125H15V18.25L16.5844 16.6662ZM16.1188 9.50561C15.8399 8.31246 15.1326 7.26325 14.1312 6.55718C13.1298 5.8511 11.904 5.53733 10.6865 5.67542C9.46897 5.81352 8.34457 6.39387 7.52673 7.3063C6.7089 8.21872 6.25457 9.39969 6.25002 10.625C6.24941 11.424 6.44241 12.2112 6.81252 12.9194C6.13823 13.2807 5.60402 13.857 5.29478 14.5567C4.98555 15.2565 4.91901 16.0395 5.10575 16.7813C5.2925 17.5232 5.7218 18.1814 6.32546 18.6513C6.92912 19.1212 7.67251 19.376 8.43752 19.375H11.3388L10.0888 18.125H8.43752C7.90529 18.1266 7.39082 17.9336 6.99097 17.5823C6.59112 17.231 6.33345 16.7457 6.26647 16.2177C6.19949 15.6897 6.32781 15.1554 6.62729 14.7154C6.92677 14.2754 7.37675 13.9601 7.89252 13.8287L8.79065 13.5969L8.23877 12.8519C7.75823 12.209 7.49903 11.4276 7.50002 10.625C7.50819 9.67946 7.87326 8.77191 8.52211 8.0841C9.17097 7.39629 10.0557 6.97899 10.9992 6.91577C11.9426 6.85256 12.8751 7.14809 13.6099 7.74318C14.3448 8.33827 14.8277 9.189 14.9619 10.125L15.0244 10.5987L15.4988 10.6612C16.1281 10.7447 16.7259 10.9869 17.2359 11.3651C17.7459 11.7433 18.1512 12.2449 18.4139 12.823C18.6766 13.401 18.7878 14.0363 18.7373 14.6691C18.6868 15.302 18.4761 15.9116 18.125 16.4406L19.0188 17.3344C19.5122 16.6684 19.8318 15.89 19.9487 15.0694C20.0656 14.2489 19.976 13.4121 19.6881 12.6349C19.4002 11.8577 18.923 11.1646 18.2998 10.6182C17.6766 10.0718 16.927 9.68938 16.1188 9.50561Z" fill="white"/>
</g>
<defs>
<clipPath id="clip0_141_1275">
<rect width="15" height="15" fill="white" transform="translate(5 5)"/>
</clipPath>
</defs>
</svg>
