<svg width="193" height="40" viewBox="0 0 193 40" fill="none" xmlns="http://www.w3.org/2000/svg">
<path d="M15.9355 36.3683C14.7753 36.3683 13.846 35.991 13.1476 35.2363C12.4492 34.482 12.0719 33.4459 12.0156 32.1283H10.157V36.2162H9.05029V27.4324H10.157V31.1993H12.0409C12.1536 29.983 12.5534 29.0287 13.2406 28.3363C13.9332 27.6436 14.8315 27.2973 15.9355 27.2973C17.1406 27.2973 18.0953 27.7027 18.7994 28.5135C19.5034 29.3243 19.8554 30.4308 19.8554 31.8328C19.8554 33.2347 19.5034 34.3413 18.7994 35.1521C18.0953 35.9629 17.1406 36.3683 15.9355 36.3683ZM13.891 34.434C14.3866 35.0591 15.0682 35.3715 15.9355 35.3715C16.8028 35.3715 17.4815 35.0591 17.9715 34.434C18.4671 33.8092 18.7148 32.942 18.7148 31.8328C18.7148 30.7236 18.4671 29.8564 17.9715 29.2313C17.4815 28.6065 16.8028 28.2938 15.9355 28.2938C15.0682 28.2938 14.3866 28.6065 13.891 29.2313C13.401 29.8564 13.1561 30.7236 13.1561 31.8328C13.1561 32.942 13.401 33.8092 13.891 34.434ZM25.6255 27.2888C26.7405 27.2888 27.6416 27.7055 28.3288 28.5389C29.0215 29.3665 29.3678 30.4616 29.3678 31.8243C29.3678 33.1871 29.0243 34.2848 28.3373 35.1182C27.6556 35.9459 26.7603 36.3598 25.6506 36.3598C24.9581 36.3598 24.344 36.1823 23.809 35.8278C23.2797 35.4674 22.8966 34.9944 22.6602 34.4088H22.6263V39.1216H21.5111V27.4324H22.5672V29.2905H22.6009C22.8487 28.6937 23.2401 28.2122 23.7752 27.8463C24.3103 27.4746 24.9271 27.2888 25.6255 27.2888ZM25.431 35.3715C26.2815 35.3715 26.9602 35.0506 27.467 34.4088C27.974 33.7613 28.2273 32.8998 28.2273 31.8243C28.2273 30.7546 27.9711 29.8958 27.4585 29.2483C26.9517 28.6007 26.2758 28.2772 25.431 28.2772C24.5976 28.2772 23.9218 28.6065 23.4034 29.2652C22.8855 29.9184 22.6263 30.7713 22.6263 31.8243C22.6263 32.8829 22.8855 33.7388 23.4034 34.3919C23.9218 35.045 24.5976 35.3715 25.431 35.3715ZM32.122 36.2162H31.0152V27.4324H32.122V34.4933H32.1811L37.0724 27.4324H38.1791V36.2162H37.0724V29.1553H37.0218L32.122 36.2162ZM47.3791 30.0422H46.2723C46.1202 29.5241 45.8273 29.102 45.3938 28.7753C44.9657 28.443 44.4306 28.2772 43.7887 28.2772C42.9326 28.2772 42.2483 28.6007 41.7357 29.2483C41.2233 29.8903 40.9671 30.7488 40.9671 31.8243C40.9671 32.911 41.2233 33.7753 41.7357 34.4173C42.2539 35.0535 42.9438 35.3715 43.8056 35.3715C44.4306 35.3715 44.9573 35.2223 45.3853 34.9239C45.8191 34.62 46.1118 34.2032 46.2639 33.674H47.3791C47.2215 34.4735 46.8186 35.1211 46.1711 35.6166C45.5233 36.1121 44.732 36.3598 43.7972 36.3598C42.5918 36.3598 41.6289 35.9515 40.908 35.1351C40.1871 34.3188 39.8266 33.2151 39.8266 31.8243C39.8266 30.4505 40.1871 29.3524 40.908 28.5305C41.6289 27.7027 42.5891 27.2888 43.7887 27.2888C44.746 27.2888 45.543 27.5506 46.1796 28.0742C46.8214 28.598 47.2215 29.2538 47.3791 30.0422ZM55.0668 27.4324V28.3614H52.0761V36.2162H50.9696V28.3614H47.9789V27.4324H55.0668Z" fill="#1FBA14"/>
<path d="M63.4053 28.353H61.099V31.2162H63.2447C63.8474 31.2162 64.3064 31.0896 64.6218 30.8363C64.9428 30.5827 65.1033 30.2168 65.1033 29.7382C65.1033 29.2989 64.954 28.9584 64.6555 28.7162C64.3626 28.474 63.9459 28.353 63.4053 28.353ZM63.3292 32.1283H61.099V35.2956H63.532C64.1795 35.2956 64.6725 35.1605 65.0104 34.8903C65.3483 34.62 65.5172 34.223 65.5172 33.6993C65.5172 33.1813 65.3286 32.7899 64.9513 32.5254C64.5794 32.2607 64.0388 32.1283 63.3292 32.1283ZM59.9922 36.2162V27.4324H63.5405C64.3626 27.4324 65.0104 27.6296 65.4834 28.0236C65.9566 28.4122 66.193 28.9499 66.193 29.6368C66.193 30.1211 66.0467 30.5461 65.7538 30.9121C65.4666 31.2782 65.1005 31.5034 64.6555 31.5878V31.6471C65.2357 31.7146 65.7059 31.934 66.0663 32.3057C66.4324 32.6773 66.6155 33.1503 66.6155 33.7247C66.6155 34.5074 66.3451 35.1182 65.8044 35.5575C65.2693 35.9966 64.5288 36.2162 63.5826 36.2162H59.9922ZM78.2147 27.4324V28.3614H75.2241V36.2162H74.1173V28.3614H71.1267V27.4324H78.2147ZM83.0048 28.353H80.6984V31.2162H82.8442C83.4468 31.2162 83.9058 31.0896 84.2213 30.8363C84.5423 30.5827 84.7028 30.2168 84.7028 29.7382C84.7028 29.2989 84.5534 28.9584 84.255 28.7162C83.9621 28.474 83.5454 28.353 83.0048 28.353ZM82.9287 32.1283H80.6984V35.2956H83.1315C83.779 35.2956 84.2719 35.1605 84.6099 34.8903C84.9477 34.62 85.1167 34.223 85.1167 33.6993C85.1167 33.1813 84.9281 32.7899 84.5507 32.5254C84.1789 32.2607 83.6383 32.1283 82.9287 32.1283ZM79.5917 36.2162V27.4324H83.14C83.9621 27.4324 84.6099 27.6296 85.0829 28.0236C85.556 28.4122 85.7925 28.9499 85.7925 29.6368C85.7925 30.1211 85.6461 30.5461 85.3533 30.9121C85.0659 31.2782 84.7 31.5034 84.255 31.5878V31.6471C84.8351 31.7146 85.3053 31.934 85.6658 32.3057C86.0318 32.6773 86.215 33.1503 86.215 33.7247C86.215 34.5074 85.9446 35.1182 85.4039 35.5575C84.8688 35.9966 84.1283 36.2162 83.1821 36.2162H79.5917ZM94.367 35.1351C93.6349 35.9515 92.6661 36.3598 91.4617 36.3598C90.2563 36.3598 89.2875 35.9515 88.555 35.1351C87.8229 34.3131 87.4568 33.2094 87.4568 31.8243C87.4568 30.4393 87.8229 29.3384 88.555 28.522C89.2929 27.6998 90.2617 27.2888 91.4617 27.2888C92.6661 27.2888 93.6349 27.6998 94.367 28.522C95.0992 29.3384 95.4652 30.4393 95.4652 31.8243C95.4652 33.2094 95.0992 34.3131 94.367 35.1351ZM89.3742 34.4255C89.8929 35.0562 90.5884 35.3715 91.4617 35.3715C92.334 35.3715 93.0295 35.0562 93.5483 34.4255C94.0715 33.7949 94.3331 32.928 94.3331 31.8243C94.3331 30.7207 94.0715 29.8537 93.5483 29.223C93.0295 28.5924 92.334 28.2772 91.4617 28.2772C90.5884 28.2772 89.8929 28.5924 89.3742 29.223C88.8563 29.8537 88.5973 30.7207 88.5973 31.8243C88.5973 32.928 88.8563 33.7949 89.3742 34.4255ZM100.594 28.2687C99.8108 28.2687 99.1661 28.5416 98.659 29.088C98.1581 29.6285 97.8849 30.3349 97.8393 31.2078H103.263C103.252 30.3349 103.001 29.6285 102.511 29.088C102.021 28.5416 101.382 28.2687 100.594 28.2687ZM103.196 33.7247H104.302C104.167 34.496 103.767 35.1296 103.103 35.625C102.444 36.1149 101.636 36.3598 100.678 36.3598C99.4447 36.3598 98.4706 35.9572 97.7545 35.1521C97.0393 34.3413 96.6822 33.2404 96.6822 31.8497C96.6822 30.4814 97.0393 29.3805 97.7545 28.5474C98.4706 27.7083 99.4224 27.2888 100.611 27.2888C101.771 27.2888 102.695 27.683 103.381 28.4713C104.069 29.2597 104.412 30.3097 104.412 31.6216V32.0946H97.8313V32.1622C97.8313 33.1531 98.0902 33.9386 98.6081 34.5186C99.1268 35.093 99.825 35.38 100.704 35.38C101.351 35.38 101.897 35.2281 102.342 34.9239C102.788 34.62 103.071 34.2202 103.196 33.7247ZM107.174 36.2162H106.068V27.4324H107.411L110.841 34.7467H110.9L114.33 27.4324H115.622V36.2162H114.507V29.4088H114.465L111.28 36.0389H110.41L107.225 29.4088H107.174V36.2162ZM123.546 31.6131L128.159 36.2162H126.689L122.415 31.934H122.364V36.2162H121.257V27.4324H122.364V31.3768H122.415L126.579 27.4324H127.99L123.546 31.6131ZM132.004 35.397C132.775 35.397 133.425 35.1577 133.955 34.6791C134.484 34.2004 134.749 33.6121 134.749 32.9138V31.9425L132.147 32.12C131.455 32.165 130.922 32.3338 130.55 32.6267C130.179 32.9138 129.993 33.2995 129.993 33.7838C129.993 34.2623 130.179 34.6508 130.55 34.9494C130.922 35.2478 131.406 35.397 132.004 35.397ZM131.775 36.3598C130.908 36.3598 130.204 36.1232 129.663 35.6503C129.129 35.1717 128.861 34.5496 128.861 33.7838C128.861 33.0292 129.131 32.4324 129.671 31.9931C130.218 31.554 130.998 31.3007 132.012 31.2331L134.749 31.0641V30.3041C134.749 29.6678 134.557 29.1722 134.174 28.8177C133.791 28.4573 133.259 28.2772 132.578 28.2772C131.936 28.2772 131.412 28.4263 131.006 28.7247C130.606 29.023 130.359 29.4398 130.263 29.9746H129.181C129.244 29.1751 129.581 28.5276 130.196 28.0321C130.815 27.5366 131.618 27.2888 132.603 27.2888C133.605 27.2888 134.4 27.5506 134.986 28.0742C135.571 28.598 135.864 29.3074 135.864 30.2027V36.2162H134.799V34.5439H134.774C134.532 35.0901 134.135 35.5294 133.583 35.8614C133.031 36.1937 132.429 36.3598 131.775 36.3598ZM142.022 27.2888C143.138 27.2888 144.039 27.7055 144.726 28.5389C145.419 29.3665 145.765 30.4616 145.765 31.8243C145.765 33.1871 145.421 34.2848 144.735 35.1182C144.053 35.9459 143.157 36.3598 142.048 36.3598C141.355 36.3598 140.741 36.1823 140.206 35.8278C139.677 35.4674 139.294 34.9944 139.057 34.4088H139.023V39.1216H137.908V27.4324H138.964V29.2905H138.998C139.246 28.6937 139.638 28.2122 140.172 27.8463C140.708 27.4746 141.324 27.2888 142.022 27.2888ZM141.829 35.3715C142.679 35.3715 143.357 35.0506 143.864 34.4088C144.371 33.7613 144.625 32.8998 144.625 31.8243C144.625 30.7546 144.369 29.8958 143.856 29.2483C143.349 28.6007 142.673 28.2772 141.829 28.2772C140.995 28.2772 140.319 28.6065 139.801 29.2652C139.283 29.9184 139.023 30.7713 139.023 31.8243C139.023 32.8829 139.283 33.7388 139.801 34.3919C140.319 35.045 140.995 35.3715 141.829 35.3715ZM148.519 36.2162H147.413V27.4324H148.755L152.186 34.7467H152.245L155.675 27.4324H156.967V36.2162H155.852V29.4088H155.81L152.625 36.0389H151.755L148.57 29.4088H148.519V36.2162ZM161.892 35.397C162.664 35.397 163.314 35.1577 163.844 34.6791C164.373 34.2004 164.638 33.6121 164.638 32.9138V31.9425L162.036 32.12C161.344 32.165 160.811 32.3338 160.439 32.6267C160.068 32.9138 159.882 33.2995 159.882 33.7838C159.882 34.2623 160.068 34.6508 160.439 34.9494C160.811 35.2478 161.296 35.397 161.892 35.397ZM161.664 36.3598C160.797 36.3598 160.093 36.1232 159.553 35.6503C159.017 35.1717 158.75 34.5496 158.75 33.7838C158.75 33.0292 159.021 32.4324 159.561 31.9931C160.107 31.554 160.888 31.3007 161.901 31.2331L164.638 31.0641V30.3041C164.638 29.6678 164.446 29.1722 164.063 28.8177C163.68 28.4573 163.148 28.2772 162.467 28.2772C161.825 28.2772 161.301 28.4263 160.896 28.7247C160.496 29.023 160.248 29.4398 160.152 29.9746H159.071C159.133 29.1751 159.471 28.5276 160.085 28.0321C160.704 27.5366 161.506 27.2888 162.492 27.2888C163.495 27.2888 164.288 27.5506 164.874 28.0742C165.461 28.598 165.754 29.3074 165.754 30.2027V36.2162H164.688V34.5439H164.663C164.421 35.0901 164.024 35.5294 163.472 35.8614C162.921 36.1937 162.318 36.3598 161.664 36.3598ZM173.728 36.2162V32.1283H168.896V36.2162H167.789V27.4324H168.896V31.1993H173.728V27.4324H174.835V36.2162H173.728ZM180.41 28.2687C179.628 28.2687 178.983 28.5416 178.476 29.088C177.975 29.6285 177.702 30.3349 177.656 31.2078H183.08C183.068 30.3349 182.818 29.6285 182.328 29.088C181.839 28.5416 181.199 28.2687 180.41 28.2687ZM183.013 33.7247H184.119C183.984 34.496 183.584 35.1296 182.921 35.625C182.261 36.1149 181.454 36.3598 180.495 36.3598C179.262 36.3598 178.288 35.9572 177.572 35.1521C176.857 34.3413 176.499 33.2404 176.499 31.8497C176.499 30.4814 176.857 29.3805 177.572 28.5474C178.288 27.7083 179.239 27.2888 180.428 27.2888C181.588 27.2888 182.511 27.683 183.198 28.4713C183.887 29.2597 184.229 30.3097 184.229 31.6216V32.0946H177.648V32.1622C177.648 33.1531 177.907 33.9386 178.425 34.5186C178.944 35.093 179.642 35.38 180.52 35.38C181.169 35.38 181.714 35.2281 182.16 34.9239C182.604 34.62 182.888 34.2202 183.013 33.7247Z" fill="black"/>
<path d="M21.4048 18.1982V5.93748H24.6309V8.15631H24.6995C24.9589 7.40907 25.4011 6.81434 26.0265 6.37209C26.6519 5.92986 27.3764 5.70874 28.2002 5.70874C29.085 5.70874 29.8246 5.92986 30.4195 6.37209C31.0144 6.80671 31.4149 7.42432 31.6207 8.22492H31.6893C31.964 7.45481 32.4405 6.84483 33.1194 6.39498C33.8058 5.93748 34.5989 5.70874 35.499 5.70874C36.7039 5.70874 37.6725 6.08616 38.4047 6.84103C39.1445 7.59588 39.5143 8.59092 39.5143 9.82615V18.1982H36.1739V10.6611C36.1739 9.95196 36.0023 9.41062 35.659 9.03696C35.3159 8.65574 34.8202 8.4651 34.1719 8.4651C33.5388 8.4651 33.0279 8.6748 32.639 9.09419C32.2576 9.51348 32.0669 10.0663 32.0669 10.7526V18.1982H28.8523V10.5581C28.8523 9.9024 28.6769 9.39151 28.326 9.02553C27.9751 8.65191 27.4909 8.4651 26.873 8.4651C26.2401 8.4651 25.7253 8.68241 25.3287 9.11705C24.9398 9.5516 24.7453 10.112 24.7453 10.7983V18.1982H21.4048ZM43.1295 22.7387C42.3972 22.7387 41.9778 22.7274 41.8709 22.7045V20.1312C41.9396 20.1462 42.2181 20.1538 42.7061 20.1538C43.324 20.1538 43.7929 20.0472 44.1134 19.8337C44.4336 19.6279 44.6509 19.2809 44.7654 18.7929C44.7654 18.7852 44.7845 18.6899 44.8226 18.507C44.8608 18.3239 44.8759 18.2248 44.8683 18.2095L40.6011 5.93748H44.2734L46.8817 15.5219H46.9389L49.5473 5.93748H53.0709L48.8494 18.4726C48.3232 20.0434 47.6292 21.1452 46.7673 21.778C45.9133 22.4186 44.7005 22.7387 43.1295 22.7387ZM65.6091 5.93748V18.1982H62.3831V15.9908H62.3144C61.6737 17.6149 60.4496 18.427 58.6422 18.427C57.2999 18.427 56.2283 18.0191 55.4275 17.2031C54.6268 16.3796 54.2263 15.2588 54.2263 13.8406V5.93748H57.5667V13.1429C57.5667 13.9588 57.7612 14.5802 58.1501 15.0072C58.5468 15.4342 59.1151 15.6477 59.8547 15.6477C60.5945 15.6477 61.1819 15.4037 61.6166 14.9157C62.0513 14.4277 62.2686 13.7758 62.2686 12.9599V5.93748H65.6091ZM67.7828 18.1982V5.93748H71.0088V8.14487H71.0775C71.291 7.36714 71.6495 6.7724 72.1529 6.36067C72.6563 5.94892 73.2701 5.74305 73.9946 5.74305C74.3455 5.74305 74.662 5.78499 74.9443 5.86887V8.80822C74.6316 8.67859 74.2273 8.61379 73.7315 8.61379C72.9078 8.61379 72.2674 8.85397 71.8096 9.33437C71.352 9.81473 71.1233 10.4857 71.1233 11.3473V18.1982H67.7828ZM76.3743 18.1982V5.93748H79.7148V18.1982H76.3743ZM79.3143 4.08465C78.9711 4.42015 78.5478 4.58789 78.0444 4.58789C77.5411 4.58789 77.1179 4.42015 76.7746 4.08465C76.4314 3.74915 76.2599 3.34123 76.2599 2.86087C76.2599 2.37289 76.4314 1.96496 76.7746 1.63709C77.1179 1.3016 77.5411 1.13385 78.0444 1.13385C78.5478 1.13385 78.9711 1.3016 79.3143 1.63709C79.6575 1.96496 79.8293 2.37289 79.8293 2.86087C79.8293 3.34123 79.6575 3.74915 79.3143 4.08465ZM81.7396 9.54017C81.7396 8.3736 82.2087 7.43956 83.1468 6.73809C84.0849 6.02898 85.3394 5.67443 86.9106 5.67443C88.4434 5.67443 89.6751 6.0328 90.6055 6.74953C91.5359 7.46625 92.0126 8.41935 92.0359 9.60883H88.9584C88.9201 9.11321 88.7143 8.72434 88.3405 8.44223C87.9745 8.16011 87.4825 8.01906 86.8649 8.01906C86.2851 8.01906 85.8199 8.14105 85.469 8.38505C85.1259 8.62142 84.9543 8.93785 84.9543 9.33437C84.9543 9.9291 85.4881 10.3522 86.5559 10.6038L88.901 11.1071C90.1287 11.3816 91.01 11.7819 91.5439 12.308C92.085 12.8265 92.3555 13.5432 92.3555 14.4582C92.3555 15.6629 91.8528 16.6312 90.8457 17.3633C89.8394 18.0953 88.5236 18.4612 86.8991 18.4612C85.2823 18.4612 83.9895 18.1029 83.0209 17.3862C82.0523 16.6694 81.5223 15.7049 81.4307 14.4925H84.6911C84.7751 15.011 85.0114 15.4113 85.4005 15.6934C85.797 15.9755 86.327 16.1166 86.9906 16.1166C87.6236 16.1166 88.1193 16.0022 88.4778 15.7735C88.8439 15.5371 89.027 15.2169 89.027 14.8128C89.027 14.5002 88.9126 14.2523 88.6836 14.0694C88.455 13.8787 88.066 13.7186 87.5169 13.589L85.2517 13.0857C82.9103 12.552 81.7396 11.3702 81.7396 9.54017ZM94.9189 3.11248H98.2591V5.93748H100.524V8.45368H98.2591V14.321C98.2591 15.2436 98.7394 15.7049 99.7001 15.7049C100.014 15.7049 100.284 15.6858 100.513 15.6477V18.1067C100.123 18.1982 99.5939 18.2439 98.9225 18.2439C97.4814 18.2439 96.4519 17.9847 95.8341 17.4662C95.2234 16.9477 94.9189 16.0899 94.9189 14.8929V8.45368H93.1912V5.93748H94.9189V3.11248ZM118.943 16.7686C117.852 17.897 116.372 18.4612 114.504 18.4612C112.635 18.4612 111.156 17.8932 110.065 16.7571C108.974 15.621 108.43 14.0541 108.43 12.0564C108.43 10.0816 108.979 8.52611 110.077 7.39C111.182 6.24629 112.658 5.67443 114.504 5.67443C116.357 5.67443 117.833 6.24629 118.931 7.39C120.03 8.52611 120.579 10.0816 120.579 12.0564C120.579 14.0617 120.033 15.6324 118.943 16.7686ZM114.504 15.9107C115.328 15.9107 115.98 15.5753 116.46 14.9043C116.94 14.2333 117.181 13.2878 117.181 12.0679C117.181 10.8631 116.94 9.92142 116.46 9.24285C115.98 8.56423 115.328 8.22492 114.504 8.22492C113.681 8.22492 113.024 8.56423 112.536 9.24285C112.056 9.92142 111.815 10.8631 111.815 12.0679C111.815 13.2878 112.056 14.2333 112.536 14.9043C113.017 15.5753 113.672 15.9107 114.504 15.9107ZM122.306 18.1982V5.93748H125.532V8.12199H125.601C125.937 7.34425 126.424 6.74953 127.065 6.33779C127.714 5.91841 128.503 5.70874 129.433 5.70874C130.79 5.70874 131.839 6.11285 132.58 6.92108C133.319 7.72932 133.689 8.85397 133.689 10.2951V18.1982H130.348V10.9928C130.348 10.1845 130.158 9.56312 129.776 9.12848C129.395 8.69386 128.835 8.47654 128.095 8.47654C127.355 8.47654 126.76 8.72434 126.31 9.21999C125.868 9.71553 125.647 10.3637 125.647 11.1643V18.1982H122.306ZM135.886 18.1982V1.69428H139.226V18.1982H135.886ZM141.537 18.1982V5.93748H144.877V18.1982H141.537ZM144.477 4.08465C144.134 4.42015 143.711 4.58789 143.207 4.58789C142.704 4.58789 142.281 4.42015 141.938 4.08465C141.594 3.74915 141.422 3.34123 141.422 2.86087C141.422 2.37289 141.594 1.96496 141.938 1.63709C142.281 1.3016 142.704 1.13385 143.207 1.13385C143.711 1.13385 144.134 1.3016 144.477 1.63709C144.82 1.96496 144.992 2.37289 144.992 2.86087C144.992 3.34123 144.82 3.74915 144.477 4.08465ZM147.108 18.1982V5.93748H150.334V8.12199H150.403C150.739 7.34425 151.227 6.74953 151.867 6.33779C152.515 5.91841 153.305 5.70874 154.235 5.70874C155.593 5.70874 156.641 6.11285 157.381 6.92108C158.121 7.72932 158.491 8.85397 158.491 10.2951V18.1982H155.15V10.9928C155.15 10.1845 154.96 9.56312 154.579 9.12848C154.197 8.69386 153.637 8.47654 152.897 8.47654C152.157 8.47654 151.562 8.72434 151.112 9.21999C150.67 9.71553 150.448 10.3637 150.448 11.1643V18.1982H147.108ZM166.11 8.14487C165.386 8.14487 164.779 8.39267 164.291 8.88829C163.811 9.38392 163.54 10.0168 163.479 10.7869H168.684C168.646 10.0015 168.39 9.36482 167.917 8.87685C167.452 8.38887 166.85 8.14487 166.11 8.14487ZM168.73 14.4468H171.796C171.613 15.6515 171.01 16.6237 169.989 17.3633C168.974 18.0953 167.712 18.4612 166.202 18.4612C164.318 18.4612 162.838 17.897 161.763 16.7686C160.695 15.6401 160.161 14.0922 160.161 12.125C160.161 10.1654 160.695 8.60236 161.763 7.43577C162.831 6.26153 164.268 5.67443 166.076 5.67443C167.853 5.67443 169.267 6.23105 170.32 7.34425C171.372 8.45748 171.898 9.94812 171.898 11.8162V12.8341H163.445V13.04C163.445 13.9169 163.7 14.6297 164.211 15.1787C164.73 15.7201 165.413 15.9908 166.259 15.9908C166.869 15.9908 167.395 15.8536 167.838 15.5791C168.28 15.297 168.577 14.9195 168.73 14.4468Z" fill="black"/>
<path d="M105.832 17.7979C105.474 18.1562 105.039 18.3354 104.528 18.3354C104.017 18.3354 103.582 18.1562 103.224 17.7979C102.865 17.4395 102.687 17.0049 102.687 16.494C102.687 15.9831 102.865 15.5486 103.224 15.1902C103.582 14.8318 104.017 14.6526 104.528 14.6526C105.039 14.6526 105.474 14.8318 105.832 15.1902C106.191 15.5486 106.37 15.9831 106.37 16.494C106.37 17.0049 106.191 17.4395 105.832 17.7979Z" fill="#1FBA14"/>
</svg>
