<svg width="15" height="15" viewBox="0 0 15 15" fill="none" xmlns="http://www.w3.org/2000/svg">
<path d="M12.6299 0H2.37008C1.06317 0 0 1.06317 0 2.37008V12.6299C0 13.9368 1.06317 15 2.37008 15H12.6299C13.9368 15 15 13.9368 15 12.6299V2.37008C15 1.06317 13.9368 0 12.6299 0ZM13.4199 12.6299C13.4199 13.0655 13.0655 13.4199 12.63 13.4199H2.37008C1.9345 13.4199 1.58013 13.0655 1.58013 12.6299V2.37008C1.58013 1.9345 1.93454 1.58013 2.37008 1.58013H12.6299C13.0655 1.58013 13.4199 1.93454 13.4199 2.37008V12.6299H13.4199Z" fill="#1FBA14"/>
<path d="M10.4102 4.44104C10.1554 4.44104 9.91589 4.54033 9.73564 4.72062L6.20568 8.25633L5.26484 7.31558C5.08472 7.13542 4.84522 7.03616 4.59047 7.03616C4.33568 7.03616 4.09618 7.13542 3.91601 7.31554C3.73589 7.49567 3.63672 7.73516 3.63672 7.98991C3.63672 8.24466 3.73589 8.48417 3.91601 8.66425L5.53143 10.2797C5.71155 10.4598 5.95105 10.5591 6.20584 10.5591C6.46051 10.5591 6.70009 10.4598 6.88043 10.2795L11.0846 6.06925C11.4564 5.69733 11.4564 5.09225 11.0846 4.72033C10.9045 4.54025 10.665 4.44104 10.4102 4.44104Z" fill="#1FBA14"/>
</svg>
