<svg width="15" height="15" viewBox="0 0 15 15" fill="none" xmlns="http://www.w3.org/2000/svg">
<g clip-path="url(#clip0_1_169)">
<path d="M10.625 8.75C10.625 8.91576 10.5592 9.07473 10.4419 9.19194C10.3247 9.30915 10.1658 9.375 10 9.375H5C4.83424 9.375 4.67527 9.30915 4.55806 9.19194C4.44085 9.07473 4.375 8.91576 4.375 8.75C4.375 8.58424 4.44085 8.42527 4.55806 8.30806C4.67527 8.19085 4.83424 8.125 5 8.125H10C10.1658 8.125 10.3247 8.19085 10.4419 8.30806C10.5592 8.42527 10.625 8.58424 10.625 8.75ZM8.125 10.625H5C4.83424 10.625 4.67527 10.6908 4.55806 10.8081C4.44085 10.9253 4.375 11.0842 4.375 11.25C4.375 11.4158 4.44085 11.5747 4.55806 11.6919C4.67527 11.8092 4.83424 11.875 5 11.875H8.125C8.29076 11.875 8.44973 11.8092 8.56694 11.6919C8.68415 11.5747 8.75 11.4158 8.75 11.25C8.75 11.0842 8.68415 10.9253 8.56694 10.8081C8.44973 10.6908 8.29076 10.625 8.125 10.625ZM13.75 6.55312V11.875C13.749 12.7035 13.4195 13.4978 12.8336 14.0836C12.2478 14.6694 11.4535 14.999 10.625 15H4.375C3.5465 14.999 2.75222 14.6694 2.16639 14.0836C1.58055 13.4978 1.25099 12.7035 1.25 11.875V3.125C1.25099 2.2965 1.58055 1.50222 2.16639 0.916387C2.75222 0.33055 3.5465 0.000991558 4.375 -8.53367e-07H7.19688C7.77164 -0.00148018 8.34099 0.110991 8.87202 0.330911C9.40304 0.550831 9.8852 0.873835 10.2906 1.28125L12.4681 3.46C12.8758 3.86515 13.199 4.34716 13.419 4.87811C13.6391 5.40906 13.7516 5.97839 13.75 6.55312ZM9.40688 2.165C9.21018 1.97447 8.98933 1.81058 8.75 1.6775V4.375C8.75 4.54076 8.81585 4.69973 8.93306 4.81694C9.05027 4.93415 9.20924 5 9.375 5H12.0725C11.9393 4.76074 11.7752 4.54009 11.5844 4.34375L9.40688 2.165ZM12.5 6.55312C12.5 6.45 12.48 6.35125 12.4706 6.25H9.375C8.87772 6.25 8.40081 6.05246 8.04918 5.70082C7.69754 5.34919 7.5 4.87228 7.5 4.375V1.27937C7.39875 1.27 7.29938 1.25 7.19688 1.25H4.375C3.87772 1.25 3.40081 1.44754 3.04918 1.79917C2.69754 2.1508 2.5 2.62772 2.5 3.125V11.875C2.5 12.3723 2.69754 12.8492 3.04918 13.2008C3.40081 13.5525 3.87772 13.75 4.375 13.75H10.625C11.1223 13.75 11.5992 13.5525 11.9508 13.2008C12.3025 12.8492 12.5 12.3723 12.5 11.875V6.55312Z" fill="#1FBA14"/>
</g>
<defs>
<clipPath id="clip0_1_169">
<rect width="15" height="15" fill="white"/>
</clipPath>
</defs>
</svg>
