<svg width="15" height="16" viewBox="0 0 15 16" fill="none" xmlns="http://www.w3.org/2000/svg">
<g clip-path="url(#clip0_1_140)">
<path d="M12.5 0.5H2.5C1.83696 0.5 1.20107 0.763392 0.732233 1.23223C0.263392 1.70107 0 2.33696 0 3L0 10.5C0 11.163 0.263392 11.7989 0.732233 12.2678C1.20107 12.7366 1.83696 13 2.5 13H4.3125L7.09437 15.3519C7.20723 15.4474 7.35028 15.4998 7.49813 15.4998C7.64597 15.4998 7.78902 15.4474 7.90187 15.3519L10.6875 13H12.5C13.163 13 13.7989 12.7366 14.2678 12.2678C14.7366 11.7989 15 11.163 15 10.5V3C15 2.33696 14.7366 1.70107 14.2678 1.23223C13.7989 0.763392 13.163 0.5 12.5 0.5V0.5ZM13.75 10.5C13.75 10.8315 13.6183 11.1495 13.3839 11.3839C13.1495 11.6183 12.8315 11.75 12.5 11.75H10.6875C10.3921 11.7501 10.1062 11.8548 9.88062 12.0456L7.5 14.0563L5.12063 12.0456C4.89473 11.8545 4.60837 11.7498 4.3125 11.75H2.5C2.16848 11.75 1.85054 11.6183 1.61612 11.3839C1.3817 11.1495 1.25 10.8315 1.25 10.5V3C1.25 2.66848 1.3817 2.35054 1.61612 2.11612C1.85054 1.8817 2.16848 1.75 2.5 1.75H12.5C12.8315 1.75 13.1495 1.8817 13.3839 2.11612C13.6183 2.35054 13.75 2.66848 13.75 3V10.5Z" fill="#1FBA14"/>
<path d="M4.375 4.875H7.5C7.66576 4.875 7.82473 4.80915 7.94194 4.69194C8.05915 4.57473 8.125 4.41576 8.125 4.25C8.125 4.08424 8.05915 3.92527 7.94194 3.80806C7.82473 3.69085 7.66576 3.625 7.5 3.625H4.375C4.20924 3.625 4.05027 3.69085 3.93306 3.80806C3.81585 3.92527 3.75 4.08424 3.75 4.25C3.75 4.41576 3.81585 4.57473 3.93306 4.69194C4.05027 4.80915 4.20924 4.875 4.375 4.875Z" fill="#1FBA14"/>
<path d="M10.625 6.125H4.375C4.20924 6.125 4.05027 6.19085 3.93306 6.30806C3.81585 6.42527 3.75 6.58424 3.75 6.75C3.75 6.91576 3.81585 7.07473 3.93306 7.19194C4.05027 7.30915 4.20924 7.375 4.375 7.375H10.625C10.7908 7.375 10.9497 7.30915 11.0669 7.19194C11.1842 7.07473 11.25 6.91576 11.25 6.75C11.25 6.58424 11.1842 6.42527 11.0669 6.30806C10.9497 6.19085 10.7908 6.125 10.625 6.125Z" fill="#1FBA14"/>
<path d="M10.625 8.625H4.375C4.20924 8.625 4.05027 8.69085 3.93306 8.80806C3.81585 8.92527 3.75 9.08424 3.75 9.25C3.75 9.41576 3.81585 9.57473 3.93306 9.69194C4.05027 9.80915 4.20924 9.875 4.375 9.875H10.625C10.7908 9.875 10.9497 9.80915 11.0669 9.69194C11.1842 9.57473 11.25 9.41576 11.25 9.25C11.25 9.08424 11.1842 8.92527 11.0669 8.80806C10.9497 8.69085 10.7908 8.625 10.625 8.625Z" fill="#1FBA14"/>
</g>
<defs>
<clipPath id="clip0_1_140">
<rect width="15" height="15" fill="white" transform="translate(0 0.5)"/>
</clipPath>
</defs>
</svg>
