<svg width="16" height="15" viewBox="0 0 16 15" fill="none" xmlns="http://www.w3.org/2000/svg">
<path d="M14.4247 6.92216H10.3858C9.11988 6.92216 8.07784 7.96421 8.07784 9.23012C8.07784 10.496 9.11988 11.5381 10.3858 11.5381H12.6937V13.269C12.6937 13.5858 12.4335 13.846 12.1168 13.846H2.88494C1.93522 13.846 1.15398 13.0648 1.15398 12.1151V3.46023C1.15398 2.51051 1.93522 1.72927 2.88494 1.72927H4.03892C4.35569 1.72927 4.61591 1.46905 4.61591 1.15228C4.61591 0.835513 4.35569 0.575292 4.03892 0.575292H2.88494C1.30226 0.575292 0 1.87755 0 3.46023V12.1151C0 13.6977 1.30226 15 2.88494 15H12.1168C13.0665 15 13.8477 14.2188 13.8477 13.269V11.5381H14.4247C14.7415 11.5381 15.0017 11.2778 15.0017 10.9611V7.49915C15.0017 7.18239 14.7415 6.92216 14.4247 6.92216ZM13.8477 10.3841H10.3858C9.75284 10.3841 9.23182 9.86307 9.23182 9.23012C9.23182 8.59716 9.75284 8.07614 10.3858 8.07614H13.8477V10.3841Z" fill="#1FBA14"/>
<path d="M2.67744 2.92363C2.03352 3.20463 2.24642 4.03722 2.88515 4.03722H12.117C12.4337 4.03722 12.694 4.29744 12.694 4.61421V5.1912C12.694 5.50796 12.9542 5.76819 13.2709 5.76819C13.5877 5.76819 13.8479 5.50796 13.8479 5.1912V4.61421C13.8474 4.1555 13.665 3.71526 13.3402 3.39099C13.0159 3.06615 12.5757 2.88382 12.117 2.88324H11.9323L10.9226 0.361806C10.8055 0.0704271 10.4708 -0.074974 10.1783 0.0386926L2.67744 2.92363ZM10.686 2.88324H5.99512L10.0629 1.31961L10.686 2.88324Z" fill="#1FBA14"/>
</svg>
