<svg width="60" height="60" viewBox="0 0 60 60" fill="none" xmlns="http://www.w3.org/2000/svg">
<g clip-path="url(#clip0_36_1873)">
<path d="M58.125 54.5476V53.4376C58.1226 52.8579 57.9412 52.2932 57.6055 51.8206C57.2699 51.3481 56.7965 50.9908 56.25 50.7976V27.9525C56.7965 27.7593 57.2699 27.402 57.6055 26.9295C57.9412 26.4569 58.1226 25.8922 58.125 25.3125V20.4525C58.7258 20.2426 59.2371 19.834 59.5743 19.2942C59.9115 18.7544 60.0545 18.1157 59.9796 17.4836C59.9048 16.8516 59.6166 16.264 59.1626 15.8179C58.7086 15.3718 58.1161 15.0938 57.4828 15.03L30.4528 0.117228C30.3143 0.040227 30.1585 -0.000183105 30 -0.000183105C29.8415 -0.000183105 29.6857 0.040227 29.5472 0.117228L2.51719 15.03C1.88392 15.0938 1.29137 15.3718 0.837399 15.8179C0.383433 16.264 0.0952173 16.8516 0.0203632 17.4836C-0.0544909 18.1157 0.0884947 18.7544 0.4257 19.2942C0.762906 19.834 1.27416 20.2426 1.875 20.4525V25.3125C1.8774 25.8922 2.05883 26.4569 2.39446 26.9295C2.73009 27.402 3.20352 27.7593 3.75 27.9525V50.7976C3.20352 50.9908 2.73009 51.3481 2.39446 51.8206C2.05883 52.2932 1.8774 52.8579 1.875 53.4376V54.5476C1.32852 54.7408 0.855086 55.0981 0.519457 55.5706C0.183829 56.0432 0.00240278 56.6079 0 57.1876L0 59.0626C0 59.3112 0.0987721 59.5497 0.274587 59.7255C0.450403 59.9013 0.68886 60.0001 0.9375 60.0001H59.0625C59.3111 60.0001 59.5496 59.9013 59.7254 59.7255C59.9012 59.5497 60 59.3112 60 59.0626V57.1876C59.9976 56.6079 59.8162 56.0432 59.4805 55.5706C59.1449 55.0981 58.6715 54.7408 58.125 54.5476ZM46.875 54.3751V53.4376C46.8726 52.8579 46.6912 52.2932 46.3555 51.8206C46.0199 51.3481 45.5465 50.9908 45 50.7976V27.9525C45.5465 27.7593 46.0199 27.402 46.3555 26.9295C46.6912 26.4569 46.8726 25.8922 46.875 25.3125V24.375H48.75V25.3125C48.7524 25.8922 48.9338 26.4569 49.2695 26.9295C49.6051 27.402 50.0785 27.7593 50.625 27.9525V30.9375C50.625 31.1862 50.7238 31.4246 50.8996 31.6005C51.0754 31.7763 51.3139 31.875 51.5625 31.875C51.8111 31.875 52.0496 31.7763 52.2254 31.6005C52.4012 31.4246 52.5 31.1862 52.5 30.9375V28.125H54.375V50.6251H52.5V34.6875C52.5 34.4389 52.4012 34.2005 52.2254 34.0246C52.0496 33.8488 51.8111 33.75 51.5625 33.75C51.3139 33.75 51.0754 33.8488 50.8996 34.0246C50.7238 34.2005 50.625 34.4389 50.625 34.6875V50.7976C50.0785 50.9908 49.6051 51.3481 49.2695 51.8206C48.9338 52.2932 48.7524 52.8579 48.75 53.4376V54.3751H46.875ZM36.5625 54.3751V35.4526C37.1875 35.2324 37.7144 34.7982 38.05 34.2267C38.3855 33.6553 38.508 32.9836 38.3957 32.3305C38.2834 31.6774 37.9436 31.0852 37.4365 30.6586C36.9294 30.2321 36.2877 29.9988 35.625 30H24.375C23.7124 29.9988 23.0706 30.2321 22.5635 30.6586C22.0564 31.0852 21.7166 31.6774 21.6043 32.3305C21.492 32.9836 21.6145 33.6553 21.95 34.2267C22.2856 34.7982 22.8125 35.2324 23.4375 35.4526V54.3751H22.5V53.4376C22.4976 52.8579 22.3162 52.2932 21.9805 51.8206C21.6449 51.3481 21.1715 50.9908 20.625 50.7976V27.9525C21.1715 27.7593 21.6449 27.402 21.9805 26.9295C22.3162 26.4569 22.4976 25.8922 22.5 25.3125V24.375H37.5V25.3125C37.5024 25.8922 37.6838 26.4569 38.0195 26.9295C38.3551 27.402 38.8285 27.7593 39.375 27.9525V50.7976C38.8285 50.9908 38.3551 51.3481 38.0195 51.8206C37.6838 52.2932 37.5024 52.8579 37.5 53.4376V54.3751H36.5625ZM25.3125 35.625H30C30.2486 35.625 30.4871 35.5263 30.6629 35.3505C30.8387 35.1746 30.9375 34.9362 30.9375 34.6875C30.9375 34.4389 30.8387 34.2005 30.6629 34.0246C30.4871 33.8488 30.2486 33.75 30 33.75H24.375C24.1264 33.75 23.8879 33.6513 23.7121 33.4755C23.5363 33.2996 23.4375 33.0612 23.4375 32.8125C23.4375 32.5639 23.5363 32.3255 23.7121 32.1496C23.8879 31.9738 24.1264 31.875 24.375 31.875H35.625C35.8736 31.875 36.1121 31.9738 36.2879 32.1496C36.4637 32.3255 36.5625 32.5639 36.5625 32.8125C36.5625 33.0612 36.4637 33.2996 36.2879 33.4755C36.1121 33.6513 35.8736 33.75 35.625 33.75H33.75C33.5014 33.75 33.2629 33.8488 33.0871 34.0246C32.9113 34.2005 32.8125 34.4389 32.8125 34.6875C32.8125 34.9362 32.9113 35.1746 33.0871 35.3505C33.2629 35.5263 33.5014 35.625 33.75 35.625H34.6875V54.3751H25.3125V35.625ZM11.25 54.3751V53.4376C11.2476 52.8579 11.0662 52.2932 10.7305 51.8206C10.3949 51.3481 9.92148 50.9908 9.375 50.7976V47.8126C9.375 47.5639 9.27623 47.3255 9.10041 47.1496C8.9246 46.9738 8.68614 46.8751 8.4375 46.8751C8.18886 46.8751 7.9504 46.9738 7.77459 47.1496C7.59877 47.3255 7.5 47.5639 7.5 47.8126V50.6251H5.625V28.125H7.5V44.0626C7.5 44.3112 7.59877 44.5497 7.77459 44.7255C7.9504 44.9013 8.18886 45.0001 8.4375 45.0001C8.68614 45.0001 8.9246 44.9013 9.10041 44.7255C9.27623 44.5497 9.375 44.3112 9.375 44.0626V27.9525C9.92148 27.7593 10.3949 27.402 10.7305 26.9295C11.0662 26.4569 11.2476 25.8922 11.25 25.3125V24.375H13.125V25.3125C13.1274 25.8922 13.3088 26.4569 13.6445 26.9295C13.9801 27.402 14.4535 27.7593 15 27.9525V50.7976C14.4535 50.9908 13.9801 51.3481 13.6445 51.8206C13.3088 52.2932 13.1274 52.8579 13.125 53.4376V54.3751H11.25ZM3.75 25.3125V24.375H9.375V25.3125C9.375 25.5612 9.27623 25.7996 9.10041 25.9755C8.9246 26.1513 8.68614 26.25 8.4375 26.25H4.6875C4.43886 26.25 4.2004 26.1513 4.02459 25.9755C3.84877 25.7996 3.75 25.5612 3.75 25.3125ZM16.875 28.125H18.75V50.6251H16.875V28.125ZM19.6875 26.25H15.9375C15.6889 26.25 15.4504 26.1513 15.2746 25.9755C15.0988 25.7996 15 25.5612 15 25.3125V24.375H20.625V25.3125C20.625 25.5612 20.5262 25.7996 20.3504 25.9755C20.1746 26.1513 19.9361 26.25 19.6875 26.25ZM15 53.4376C15 53.1889 15.0988 52.9505 15.2746 52.7746C15.4504 52.5988 15.6889 52.5001 15.9375 52.5001H19.6875C19.9361 52.5001 20.1746 52.5988 20.3504 52.7746C20.5262 52.9505 20.625 53.1889 20.625 53.4376V54.3751H15V53.4376ZM41.25 28.125H43.125V50.6251H41.25V28.125ZM44.0625 26.25H40.3125C40.0639 26.25 39.8254 26.1513 39.6496 25.9755C39.4738 25.7996 39.375 25.5612 39.375 25.3125V24.375H45V25.3125C45 25.5612 44.9012 25.7996 44.7254 25.9755C44.5496 26.1513 44.3111 26.25 44.0625 26.25ZM39.375 53.4376C39.375 53.1889 39.4738 52.9505 39.6496 52.7746C39.8254 52.5988 40.0639 52.5001 40.3125 52.5001H44.0625C44.3111 52.5001 44.5496 52.5988 44.7254 52.7746C44.9012 52.9505 45 53.1889 45 53.4376V54.3751H39.375V53.4376ZM50.625 53.4376C50.625 53.1889 50.7238 52.9505 50.8996 52.7746C51.0754 52.5988 51.3139 52.5001 51.5625 52.5001H55.3125C55.5611 52.5001 55.7996 52.5988 55.9754 52.7746C56.1512 52.9505 56.25 53.1889 56.25 53.4376V54.3751H50.625V53.4376ZM56.25 25.3125C56.25 25.5612 56.1512 25.7996 55.9754 25.9755C55.7996 26.1513 55.5611 26.25 55.3125 26.25H51.5625C51.3139 26.25 51.0754 26.1513 50.8996 25.9755C50.7238 25.7996 50.625 25.5612 50.625 25.3125V24.375H56.25V25.3125ZM30 2.00817L53.5481 15H6.45187L30 2.00817ZM2.8125 16.875H57.1875C57.4361 16.875 57.6746 16.9738 57.8504 17.1496C58.0262 17.3254 58.125 17.5639 58.125 17.8125C58.125 18.0612 58.0262 18.2996 57.8504 18.4755C57.6746 18.6513 57.4361 18.75 57.1875 18.75H49.6875C49.4389 18.75 49.2004 18.8488 49.0246 19.0246C48.8488 19.2004 48.75 19.4389 48.75 19.6875C48.75 19.9362 48.8488 20.1746 49.0246 20.3505C49.2004 20.5263 49.4389 20.625 49.6875 20.625H56.25V22.5H3.75V20.625H45.9375C46.1861 20.625 46.4246 20.5263 46.6004 20.3505C46.7762 20.1746 46.875 19.9362 46.875 19.6875C46.875 19.4389 46.7762 19.2004 46.6004 19.0246C46.4246 18.8488 46.1861 18.75 45.9375 18.75H2.8125C2.56386 18.75 2.3254 18.6513 2.14959 18.4755C1.97377 18.2996 1.875 18.0612 1.875 17.8125C1.875 17.5639 1.97377 17.3254 2.14959 17.1496C2.3254 16.9738 2.56386 16.875 2.8125 16.875ZM3.75 53.4376C3.75 53.1889 3.84877 52.9505 4.02459 52.7746C4.2004 52.5988 4.43886 52.5001 4.6875 52.5001H8.4375C8.68614 52.5001 8.9246 52.5988 9.10041 52.7746C9.27623 52.9505 9.375 53.1889 9.375 53.4376V54.3751H3.75V53.4376ZM58.125 58.1251H1.875V57.1876C1.875 56.9389 1.97377 56.7005 2.14959 56.5246C2.3254 56.3488 2.56386 56.2501 2.8125 56.2501H57.1875C57.4361 56.2501 57.6746 56.3488 57.8504 56.5246C58.0262 56.7005 58.125 56.9389 58.125 57.1876V58.1251Z" fill="#F5F5F5"/>
<path d="M16.6403 12.6225C16.6974 12.7316 16.7754 12.8284 16.8699 12.9073C16.9645 12.9862 17.0736 13.0457 17.1911 13.0825C17.3087 13.1192 17.4323 13.1325 17.5549 13.1214C17.6775 13.1104 17.7968 13.0753 17.9059 13.0181L29.9996 6.68344L42.0934 13.0181C42.3137 13.1335 42.5708 13.1566 42.8081 13.0824C43.0455 13.0082 43.2436 12.8428 43.359 12.6225C43.4744 12.4022 43.4975 12.1451 43.4233 11.9078C43.3491 11.6704 43.1837 11.4722 42.9634 11.3569L30.4346 4.79438C30.3004 4.72407 30.1512 4.68735 29.9996 4.68735C29.8481 4.68735 29.6989 4.72407 29.5646 4.79438L17.0359 11.3569C16.9268 11.414 16.83 11.492 16.7511 11.5865C16.6722 11.6811 16.6126 11.7902 16.5759 11.9077C16.5392 12.0253 16.5259 12.1489 16.537 12.2715C16.548 12.3942 16.5831 12.5134 16.6403 12.6225Z" fill="#F5F5F5"/>
</g>
<defs>
<clipPath id="clip0_36_1873">
<rect width="60" height="60" fill="white"/>
</clipPath>
</defs>
</svg>
