<svg width="40" height="40" viewBox="0 0 40 40" fill="none" xmlns="http://www.w3.org/2000/svg">
<path d="M19.9816 31.1309C19.4544 31.1309 19.0283 30.7046 19.0283 30.1772V28.2906C19.0283 27.7632 19.4544 27.3369 19.9816 27.3369C20.5087 27.3369 20.9348 27.7632 20.9348 28.2906V30.1772C20.9348 30.7046 20.5087 31.1309 19.9816 31.1309Z" fill="white"/>
<path d="M19.9816 12.6956C19.4544 12.6956 19.0283 12.2693 19.0283 11.7418V9.85527C19.0283 9.32784 19.4544 8.9015 19.9816 8.9015C20.5087 8.9015 20.9348 9.32784 20.9348 9.85527V11.7418C20.9348 12.2693 20.5087 12.6956 19.9816 12.6956Z" fill="white"/>
<path d="M21.3599 29.2453H18.6022C15.7967 29.2453 13.5137 26.9611 13.5137 24.1541C13.5137 23.6267 13.9398 23.2004 14.4669 23.2004C14.9941 23.2004 15.4202 23.6267 15.4202 24.1541C15.4202 25.91 16.8472 27.3378 18.6022 27.3378H21.3599C23.0853 27.3378 24.5419 25.8804 24.5419 24.1541C24.5419 22.4278 23.0853 20.9704 21.3599 20.9704H18.6022C15.8434 20.9704 13.5137 18.6394 13.5137 15.8792C13.5137 13.119 15.8434 10.788 18.6022 10.788H21.3599C24.1654 10.788 26.4484 13.0723 26.4484 15.8792C26.4484 16.4067 26.0223 16.833 25.4952 16.833C24.968 16.833 24.5419 16.4067 24.5419 15.8792C24.5419 14.1234 23.1149 12.6956 21.3599 12.6956H18.6022C16.8768 12.6956 15.4202 14.1529 15.4202 15.8792C15.4202 17.6056 16.8777 19.0629 18.6031 19.0629H21.3609C24.1196 19.0629 26.4494 21.3939 26.4494 24.1541C26.4494 26.9143 24.1187 29.2453 21.3599 29.2453Z" fill="white"/>
<path d="M20.015 40C20.014 40 20.014 40 20.0131 40C15.0952 40 10.3937 38.2489 6.77611 35.07C-0.106409 29.0212 -2.00053 18.7606 2.27102 10.6717C5.69416 4.18799 12.6892 0 20.0893 0C21.7032 0 23.3113 0.198383 24.8689 0.589428C33.637 2.78977 40 10.9607 40 20.0167C40 26.4985 36.8419 32.6093 31.5503 36.3642C28.1977 38.7429 24.2093 40 20.015 40ZM20.0903 1.90753C13.3879 1.90753 7.05446 5.6978 3.95638 11.5625C0.0918693 18.8808 1.80678 28.1647 8.03441 33.6384C11.3041 36.5111 15.5585 38.0934 20.0121 38.0934H20.014C23.8108 38.0934 27.4189 36.9584 30.4465 34.8096C35.2356 31.4104 38.0935 25.8804 38.0935 20.0167C38.0935 11.8229 32.3368 4.43024 24.4066 2.43878C22.9996 2.08589 21.5487 1.90753 20.0903 1.90753Z" fill="white"/>
</svg>
