<svg width="21" height="20" viewBox="0 0 21 20" fill="none" xmlns="http://www.w3.org/2000/svg">
                    <g clip-path="url(#clip0_1_312)">
                        <path d="M19.0424 11.385L17.4591 5.68834C16.995 4.01945 15.9864 2.55358 14.5935 1.52373C13.2007 0.493884 11.5036 -0.0408381 9.77196 0.00456195C8.04033 0.049962 6.37358 0.672879 5.03662 1.7743C3.69967 2.87571 2.76924 4.39243 2.39323 6.08334L1.1674 11.5958C1.032 12.205 1.03513 12.8367 1.17656 13.4444C1.31799 14.0522 1.59412 14.6204 1.98455 15.1071C2.37498 15.5939 2.86975 15.9867 3.43233 16.2566C3.9949 16.5266 4.61092 16.6667 5.2349 16.6667H6.16323C6.3545 17.6086 6.86551 18.4554 7.60969 19.0637C8.35386 19.6719 9.28544 20.0042 10.2466 20.0042C11.2077 20.0042 12.1393 19.6719 12.8835 19.0637C13.6276 18.4554 14.1386 17.6086 14.3299 16.6667H15.0282C15.6706 16.6667 16.3042 16.5183 16.8797 16.2329C17.4552 15.9475 17.9569 15.5329 18.3456 15.0216C18.7343 14.5102 18.9996 13.9159 19.1206 13.285C19.2416 12.6542 19.2151 12.0039 19.0432 11.385H19.0424ZM10.2466 18.3333C9.73135 18.3312 9.22938 18.1699 8.80932 17.8716C8.38926 17.5733 8.07164 17.1524 7.8999 16.6667H12.5932C12.4215 17.1524 12.1039 17.5733 11.6838 17.8716C11.2638 18.1699 10.7618 18.3312 10.2466 18.3333ZM17.0182 14.0125C16.786 14.3206 16.4852 14.5702 16.1396 14.7416C15.794 14.9131 15.4132 15.0015 15.0274 15H5.2349C4.86055 14.9999 4.491 14.9158 4.15352 14.7538C3.81604 14.5918 3.51924 14.3561 3.28504 14.0641C3.05083 13.7721 2.8852 13.4312 2.80037 13.0665C2.71554 12.7019 2.71367 12.3229 2.7949 11.9575L4.0199 6.44417C4.3152 5.11601 5.04599 3.92468 6.09611 3.05955C7.14624 2.19442 8.45542 1.70515 9.81555 1.66952C11.1757 1.63389 12.5087 2.05394 13.6027 2.8629C14.6966 3.67186 15.4888 4.8233 15.8532 6.13417L17.4366 11.8308C17.5412 12.202 17.5579 12.5924 17.4852 12.9711C17.4126 13.3498 17.2527 13.7064 17.0182 14.0125Z" fill="black"/>
                    </g>
                    <defs>
                        <clipPath id="clip0_1_312">
                            <rect width="20" height="20" fill="white" transform="translate(0.246582)"/>
                        </clipPath>
                    </defs>
                </svg>