<svg width="19" height="19" viewBox="0 0 19 19" fill="none" xmlns="http://www.w3.org/2000/svg">
<path d="M9.5 0C7.62108 0 5.78435 0.557165 4.22209 1.60104C2.65982 2.64491 1.44218 4.12861 0.723149 5.86451C0.00411623 7.6004 -0.184015 9.51054 0.182544 11.3534C0.549104 13.1962 1.45389 14.8889 2.78249 16.2175C4.11109 17.5461 5.80383 18.4509 7.64664 18.8175C9.48946 19.184 11.3996 18.9959 13.1355 18.2769C14.8714 17.5578 16.3551 16.3402 17.399 14.7779C18.4428 13.2156 19 11.3789 19 9.5C18.997 6.98135 17.9952 4.56672 16.2142 2.78577C14.4333 1.00482 12.0186 0.00297132 9.5 0ZM9.5 17.2727C7.9627 17.2727 6.45992 16.8169 5.18171 15.9628C3.90349 15.1087 2.90724 13.8948 2.31894 12.4745C1.73064 11.0542 1.57671 9.49138 1.87663 7.98361C2.17654 6.47585 2.91682 5.09089 4.00385 4.00385C5.09089 2.91682 6.47586 2.17654 7.98362 1.87662C9.49138 1.57671 11.0542 1.73064 12.4745 2.31894C13.8948 2.90724 15.1087 3.90349 15.9628 5.1817C16.8169 6.45992 17.2727 7.9627 17.2727 9.5C17.2704 11.5608 16.4508 13.5364 14.9936 14.9936C13.5365 16.4508 11.5608 17.2704 9.5 17.2727Z" fill="#1FBA14"/>
<path d="M12.9232 6.93738L8.73213 10.7793L6.89309 8.94029C6.82006 8.86468 6.7327 8.80437 6.63611 8.76288C6.53953 8.72139 6.43565 8.69955 6.33053 8.69864C6.22541 8.69772 6.12116 8.71775 6.02387 8.75756C5.92658 8.79737 5.83819 8.85615 5.76386 8.93048C5.68952 9.00481 5.63074 9.0932 5.59093 9.1905C5.55113 9.28779 5.5311 9.39204 5.53201 9.49715C5.53293 9.60227 5.55476 9.70615 5.59626 9.80274C5.63775 9.89933 5.69806 9.98668 5.77367 10.0597L8.14867 12.4347C8.29294 12.579 8.48734 12.662 8.69134 12.6664C8.89533 12.6709 9.09315 12.5964 9.24354 12.4585L13.9935 8.10429C14.1483 7.96236 14.2403 7.76477 14.2494 7.55498C14.2584 7.3452 14.1838 7.14041 14.0418 6.98567C13.8999 6.83093 13.7023 6.7389 13.4925 6.72985C13.2827 6.72079 13.078 6.79544 12.9232 6.93738Z" fill="#1FBA14"/>
</svg>
