<svg width="45" height="44" viewBox="0 0 45 44" fill="none" xmlns="http://www.w3.org/2000/svg">
<rect x="0.5" width="44" height="44" rx="6" fill="#F4FCF3"/>
<g clip-path="url(#clip0_36_238)">
<path d="M32.5 20.3333V27.8333C32.4987 28.938 32.0593 29.997 31.2782 30.7782C30.497 31.5593 29.438 31.9987 28.3333 32H16.6667C15.562 31.9987 14.503 31.5593 13.7218 30.7782C12.9407 29.997 12.5013 28.938 12.5 27.8333V18.6667C12.5013 17.562 12.9407 16.503 13.7218 15.7218C14.503 14.9407 15.562 14.5013 16.6667 14.5H23.3333C23.5543 14.5 23.7663 14.5878 23.9226 14.7441C24.0789 14.9004 24.1667 15.1123 24.1667 15.3333C24.1667 15.5543 24.0789 15.7663 23.9226 15.9226C23.7663 16.0789 23.5543 16.1667 23.3333 16.1667H16.6667C16.2135 16.1679 15.7693 16.2927 15.3818 16.5277C14.9943 16.7626 14.6782 17.0988 14.4675 17.5L20.7317 23.765C21.2014 24.2326 21.8372 24.495 22.5 24.495C23.1628 24.495 23.7986 24.2326 24.2683 23.765L27.4525 20.5833C27.6097 20.4315 27.8202 20.3475 28.0387 20.3494C28.2572 20.3513 28.4662 20.439 28.6207 20.5935C28.7752 20.748 28.8628 20.957 28.8647 21.1755C28.8666 21.394 28.7826 21.6045 28.6308 21.7617L25.4467 24.9467C24.6644 25.7267 23.6047 26.1647 22.5 26.1647C21.3953 26.1647 20.3356 25.7267 19.5533 24.9467L14.1667 19.5592V27.8333C14.1667 28.4964 14.4301 29.1323 14.8989 29.6011C15.3677 30.0699 16.0036 30.3333 16.6667 30.3333H28.3333C28.9964 30.3333 29.6323 30.0699 30.1011 29.6011C30.5699 29.1323 30.8333 28.4964 30.8333 27.8333V20.3333C30.8333 20.1123 30.9211 19.9004 31.0774 19.7441C31.2337 19.5878 31.4457 19.5 31.6667 19.5C31.8877 19.5 32.0996 19.5878 32.2559 19.7441C32.4122 19.9004 32.5 20.1123 32.5 20.3333ZM26.6667 16.1667H28.3333V17.8333C28.3333 18.0543 28.4211 18.2663 28.5774 18.4226C28.7337 18.5789 28.9457 18.6667 29.1667 18.6667C29.3877 18.6667 29.5996 18.5789 29.7559 18.4226C29.9122 18.2663 30 18.0543 30 17.8333V16.1667H31.6667C31.8877 16.1667 32.0996 16.0789 32.2559 15.9226C32.4122 15.7663 32.5 15.5543 32.5 15.3333C32.5 15.1123 32.4122 14.9004 32.2559 14.7441C32.0996 14.5878 31.8877 14.5 31.6667 14.5H30V12.8333C30 12.6123 29.9122 12.4004 29.7559 12.2441C29.5996 12.0878 29.3877 12 29.1667 12C28.9457 12 28.7337 12.0878 28.5774 12.2441C28.4211 12.4004 28.3333 12.6123 28.3333 12.8333V14.5H26.6667C26.4457 14.5 26.2337 14.5878 26.0774 14.7441C25.9211 14.9004 25.8333 15.1123 25.8333 15.3333C25.8333 15.5543 25.9211 15.7663 26.0774 15.9226C26.2337 16.0789 26.4457 16.1667 26.6667 16.1667Z" fill="#1FBA14"/>
</g>
<defs>
<clipPath id="clip0_36_238">
<rect width="20" height="20" fill="white" transform="translate(12.5 12)"/>
</clipPath>
</defs>
</svg>
