<svg width="60" height="60" viewBox="0 0 60 60" fill="none" xmlns="http://www.w3.org/2000/svg">
<g clip-path="url(#clip0_36_1865)">
<path d="M33.7506 49.7963H32.9086V47.5083C32.9086 46.3383 31.9568 45.3865 30.7868 45.3865H9.18422C8.01422 45.3865 7.06242 46.3383 7.06242 47.5083V49.7963H6.22043C5.05043 49.7963 4.09863 50.748 4.09863 51.918V53.9132C4.09863 55.0832 5.05043 56.035 6.22043 56.035H11.4484C11.9323 56.035 12.3244 55.6427 12.3244 55.1589C12.3244 54.675 11.9321 54.2828 11.4484 54.2828H6.22043C6.01652 54.2828 5.8507 54.117 5.8507 53.913V51.9179C5.8507 51.714 6.01652 51.5482 6.22043 51.5482H33.7505C33.9544 51.5482 34.1202 51.714 34.1202 51.9179V53.913C34.1202 54.117 33.9544 54.2828 33.7505 54.2828H15.4812C14.9973 54.2828 14.6051 54.675 14.6051 55.1589C14.6051 55.6427 14.9973 56.035 15.4812 56.035H33.7505C34.9205 56.035 35.8723 55.0832 35.8723 53.9132V51.918C35.8724 50.7482 34.9205 49.7963 33.7506 49.7963ZM31.1565 49.7963H8.81449V47.5083C8.81449 47.3044 8.98031 47.1386 9.18422 47.1386H30.7867C30.9906 47.1386 31.1564 47.3044 31.1564 47.5083V49.7963H31.1565Z" fill="#F5F5F5"/>
<path d="M59.2243 47.7875C58.2637 46.827 56.7435 46.7613 55.7046 47.5876L31.5076 23.3907C31.819 22.8773 31.841 22.2368 31.5747 21.7048L35.7681 17.5113L35.7991 17.5423C36.1283 17.8716 36.566 18.0529 37.0316 18.0529C37.4973 18.0529 37.935 17.8716 38.2643 17.5423L39.8322 15.9744C40.1615 15.6452 40.3428 15.2074 40.3428 14.7418C40.3428 14.2762 40.1615 13.8384 39.8322 13.5093L30.7985 4.47562C30.4692 4.14633 30.0316 3.96504 29.5658 3.96504C29.1003 3.96504 28.6625 4.14633 28.3333 4.47562L26.7654 6.04336C26.4361 6.37266 26.2548 6.81035 26.2548 7.27605C26.2548 7.74164 26.4361 8.17945 26.7654 8.50863L26.7964 8.53957L22.6029 12.733C21.9498 12.4059 21.1329 12.5133 20.5889 13.0574L17.0223 16.624C16.4782 17.1681 16.371 17.9849 16.698 18.6379L12.5045 22.8313L12.4735 22.8002C11.7939 22.1208 10.688 22.1207 10.0083 22.8002L8.44034 24.3681C7.76077 25.0478 7.76077 26.1537 8.44034 26.8334L17.4741 35.8671C17.8139 36.2068 18.2602 36.3768 18.7067 36.3768C19.153 36.3768 19.5995 36.2068 19.9394 35.867L21.5072 34.2991C22.1869 33.6195 22.1869 32.5136 21.5072 31.8339L21.4762 31.8028L25.6696 27.6094C25.9148 27.7322 26.1825 27.7948 26.4509 27.7946C26.7646 27.7946 27.0775 27.7089 27.3543 27.5411L51.5525 51.7393C51.1801 52.2062 50.9766 52.7802 50.9766 53.3862C50.9766 54.0936 51.2521 54.7588 51.7524 55.2589C52.2687 55.7753 52.947 56.0334 53.6251 56.0334C54.3033 56.0334 54.9816 55.7753 55.4979 55.2589L59.224 51.5329C59.7243 51.0327 59.9997 50.3675 59.9997 49.6601C59.9997 48.9526 59.7244 48.2878 59.2243 47.7875ZM29.5658 5.72074L38.5871 14.742L37.0317 16.2973L28.0107 7.27605L29.5658 5.72074ZM28.0353 9.77848L31.2823 13.0255L34.5293 16.2725L30.3993 20.4023L23.9053 13.9084L28.0353 9.77848ZM18.7068 34.6221L9.68558 25.6009L11.2409 24.0456L20.2621 33.0668L18.7068 34.6221ZM26.451 26.0402L23.1679 22.757C22.8258 22.4149 22.271 22.4149 21.929 22.757C21.5868 23.0991 21.5868 23.6538 21.929 23.9959L24.3674 26.4343L20.2375 30.5643L13.7434 24.0703L17.8734 19.9404L19.0353 21.1023C19.3773 21.4444 19.9321 21.4444 20.2742 21.1023C20.6164 20.7602 20.6164 20.2055 20.2742 19.8634L18.2676 17.8567L21.8216 14.3026L30.0051 22.4862L26.451 26.0402ZM28.6299 26.3392L30.3041 24.6649L54.4527 48.8135L53.6155 49.6506L52.7784 50.4877L28.6299 26.3392ZM57.9853 50.2942L54.2592 54.0203C53.9098 54.3697 53.341 54.3698 52.9914 54.0203C52.8221 53.8509 52.7288 53.6259 52.7288 53.3864C52.7288 53.147 52.8221 52.9219 52.9914 52.7525L56.7175 49.0264C56.8922 48.8517 57.1218 48.7643 57.3514 48.7643C57.5809 48.7643 57.8105 48.8517 57.9852 49.0264C58.3348 49.376 58.3348 49.9447 57.9853 50.2942Z" fill="#F5F5F5"/>
<path d="M6.30219 21.9014C6.47328 22.0725 6.69746 22.158 6.92164 22.158C7.14582 22.158 7.37 22.0725 7.54109 21.9014C7.88328 21.5593 7.88328 21.0046 7.54109 20.6625L5.2182 18.3396C4.87613 17.9974 4.32148 17.9974 3.9793 18.3396C3.63711 18.6817 3.63711 19.2363 3.9793 19.5785L6.30219 21.9014Z" fill="#F5F5F5"/>
<path d="M4.95236 25.2827C5.04962 24.8088 4.74435 24.3457 4.27033 24.2484L1.05236 23.588C0.578804 23.4906 0.115328 23.7961 0.0180624 24.27C-0.0792032 24.7439 0.22607 25.207 0.700094 25.3043L3.91806 25.9648C3.97748 25.977 4.03666 25.9828 4.09513 25.9828C4.50248 25.9828 4.8674 25.6972 4.95236 25.2827Z" fill="#F5F5F5"/>
<path d="M9.88849 18.6302C9.97357 19.0448 10.3384 19.3303 10.7457 19.3303C10.8041 19.3303 10.8634 19.3245 10.9228 19.3123C11.3967 19.215 11.7021 18.752 11.6048 18.278L10.9443 15.06C10.8472 14.5861 10.3838 14.2806 9.91005 14.378C9.43614 14.4752 9.13075 14.9382 9.22802 15.4121L9.88849 18.6302Z" fill="#F5F5F5"/>
</g>
<defs>
<clipPath id="clip0_36_1865">
<rect width="60" height="60" fill="white"/>
</clipPath>
</defs>
</svg>
