<svg width="60" height="60" viewBox="0 0 60 60" fill="none" xmlns="http://www.w3.org/2000/svg">
<path d="M28 5H40V7H28V5Z" fill="#F5F5F5"/>
<path d="M18 10H22V12H18V10Z" fill="#F5F5F5"/>
<path d="M18 14H22V16H18V14Z" fill="#F5F5F5"/>
<path d="M18 18H22V20H18V18Z" fill="#F5F5F5"/>
<path d="M18 22H22V24H18V22Z" fill="#F5F5F5"/>
<path d="M18 26H22V28H18V26Z" fill="#F5F5F5"/>
<path d="M25 10H32V12H25V10Z" fill="#F5F5F5"/>
<path d="M25 14H32V16H25V14Z" fill="#F5F5F5"/>
<path d="M25 18H32V20H25V18Z" fill="#F5F5F5"/>
<path d="M25 22H32V24H25V22Z" fill="#F5F5F5"/>
<path d="M25 26H32V28H25V26Z" fill="#F5F5F5"/>
<path d="M35 10H50V12H35V10Z" fill="#F5F5F5"/>
<path d="M35 14H50V16H35V14Z" fill="#F5F5F5"/>
<path d="M35 18H50V20H35V18Z" fill="#F5F5F5"/>
<path d="M35 22H50V24H35V22Z" fill="#F5F5F5"/>
<path d="M35 26H50V28H35V26Z" fill="#F5F5F5"/>
<path d="M18 30H22V32H18V30Z" fill="#F5F5F5"/>
<path d="M18 34H22V36H18V34Z" fill="#F5F5F5"/>
<path d="M18 38H22V40H18V38Z" fill="#F5F5F5"/>
<path d="M25 30H32V32H25V30Z" fill="#F5F5F5"/>
<path d="M25 34H32V36H25V34Z" fill="#F5F5F5"/>
<path d="M25 38H32V40H25V38Z" fill="#F5F5F5"/>
<path d="M35 30H50V32H35V30Z" fill="#F5F5F5"/>
<path d="M35 34H50V36H35V34Z" fill="#F5F5F5"/>
<path d="M52 0H16C14.2998 0 13 1.2998 13 3V49H15V3C15 2.3999 15.3999 2 16 2H52C52.6001 2 53 2.3999 53 3V55C53 56.7002 51.7002 58 50 58C48.2998 58 47 56.7002 47 55V51H5V55C5 57.7998 7.2002 60 10 60H50C52.7998 60 55 57.7998 55 55V3C55 1.2998 53.7002 0 52 0ZM10 58C8.2998 58 7 56.7002 7 55V53H45V55C45 56.1001 45.3999 57.1001 46 58H10Z" fill="#F5F5F5"/>
<path d="M18 42H22V44H18V42Z" fill="#F5F5F5"/>
<path d="M18 46H22V48H18V46Z" fill="#F5F5F5"/>
<path d="M25 42H32V44H25V42Z" fill="#F5F5F5"/>
<path d="M25 46H32V48H25V46Z" fill="#F5F5F5"/>
<path d="M35 38H50V40H35V38Z" fill="#F5F5F5"/>
<path d="M35 42H50V44H35V42Z" fill="#F5F5F5"/>
<path d="M35 46H50V48H35V46Z" fill="#F5F5F5"/>
</svg>
