<svg width="60" height="60" viewBox="0 0 60 60" fill="none" xmlns="http://www.w3.org/2000/svg">
<path d="M9.54883 10.5352H13.3865C13.8719 10.5352 14.2654 10.1416 14.2654 9.65625C14.2654 9.17086 13.8719 8.77734 13.3865 8.77734H9.54883C9.06344 8.77734 8.66992 9.17086 8.66992 9.65625C8.66992 10.1416 9.06344 10.5352 9.54883 10.5352Z" fill="#F5F5F5"/>
<path d="M9.54883 15.2162H13.3865C13.8719 15.2162 14.2654 14.8227 14.2654 14.3373C14.2654 13.8519 13.8719 13.4584 13.3865 13.4584H9.54883C9.06344 13.4584 8.66992 13.8519 8.66992 14.3373C8.66992 14.8227 9.06344 15.2162 9.54883 15.2162Z" fill="#F5F5F5"/>
<path d="M28.0811 10.5352H31.9186C32.404 10.5352 32.7975 10.1416 32.7975 9.65625C32.7975 9.17086 32.404 8.77734 31.9186 8.77734H28.0811C27.5957 8.77734 27.2021 9.17086 27.2021 9.65625C27.2021 10.1416 27.5957 10.5352 28.0811 10.5352Z" fill="#F5F5F5"/>
<path d="M28.0811 15.2162H31.9186C32.404 15.2162 32.7975 14.8227 32.7975 14.3373C32.7975 13.8519 32.404 13.4584 31.9186 13.4584H28.0811C27.5957 13.4584 27.2021 13.8519 27.2021 14.3373C27.2021 14.8227 27.5957 15.2162 28.0811 15.2162Z" fill="#F5F5F5"/>
<path d="M46.6133 10.5352H50.4508C50.9362 10.5352 51.3297 10.1416 51.3297 9.65625C51.3297 9.17086 50.9362 8.77734 50.4508 8.77734H46.6133C46.1279 8.77734 45.7344 9.17086 45.7344 9.65625C45.7344 10.1416 46.1279 10.5352 46.6133 10.5352Z" fill="#F5F5F5"/>
<path d="M46.6133 15.2162H50.4508C50.9362 15.2162 51.3297 14.8227 51.3297 14.3373C51.3297 13.8519 50.9362 13.4584 50.4508 13.4584H46.6133C46.1279 13.4584 45.7344 13.8519 45.7344 14.3373C45.7344 14.8227 46.1279 15.2162 46.6133 15.2162Z" fill="#F5F5F5"/>
<path d="M26.0855 29.9372H33.9152C35.1255 29.9372 36.1101 28.9526 36.1101 27.7424V6.1432C36.1101 4.93289 35.1255 3.94839 33.9152 3.94839H26.0855C24.8752 3.94839 23.8906 4.933 23.8906 6.1432V27.7424C23.8906 28.9526 24.8752 29.9372 26.0855 29.9372ZM25.6484 6.1432C25.6484 5.90214 25.8445 5.70621 26.0855 5.70621H33.9152C34.1563 5.70621 34.3523 5.90226 34.3523 6.1432V27.7424C34.3523 27.9834 34.1563 28.1794 33.9152 28.1794H26.0855C25.8445 28.1794 25.6484 27.9833 25.6484 27.7424V6.1432Z" fill="#F5F5F5"/>
<path d="M54.8416 0H42.2225C41.034 0 39.9701 0.543398 39.2661 1.39477C38.562 0.543398 37.4981 0 36.3097 0H23.6905C22.5019 0 21.4381 0.543398 20.7341 1.39477C20.03 0.543398 18.9662 0 17.7777 0H5.15855C3.04367 0 1.32324 1.72055 1.32324 3.83531V56.1647C1.32324 58.2795 3.04379 60 5.15855 60H17.7778C18.9663 60 20.0301 59.4566 20.7342 58.6052C21.4382 59.4566 22.5021 60 23.6906 60H36.3098C37.4983 60 38.5621 59.4566 39.2662 58.6052C39.9703 59.4566 41.0341 60 42.2226 60H54.8418C56.9566 60 58.6771 58.2795 58.6771 56.1647V3.83531C58.6769 1.72055 56.9565 0 54.8416 0V0ZM17.7777 58.2422H5.15855C4.01305 58.2422 3.08105 57.3102 3.08105 56.1647V3.83531C3.08105 2.6898 4.01293 1.75781 5.15855 1.75781H17.7778C18.9233 1.75781 19.8553 2.6898 19.8553 3.83531V56.1647C19.8552 57.3102 18.9233 58.2422 17.7777 58.2422ZM36.3097 58.2422H23.6905C22.545 58.2422 21.613 57.3102 21.613 56.1647V3.83531C21.613 2.6898 22.545 1.75781 23.6905 1.75781H36.3097C37.4552 1.75781 38.3872 2.6898 38.3872 3.83531V56.1647C38.3872 57.3102 37.4552 58.2422 36.3097 58.2422ZM56.9191 56.1647C56.9191 57.3102 55.9871 58.2422 54.8416 58.2422H42.2225C41.077 58.2422 40.145 57.3102 40.145 56.1647V3.83531C40.145 2.6898 41.077 1.75781 42.2225 1.75781H54.8417C55.9872 1.75781 56.9192 2.6898 56.9192 3.83531V56.1647H56.9191Z" fill="#F5F5F5"/>
<path d="M44.6167 29.9372H52.4463C53.6566 29.9372 54.6411 28.9526 54.6411 27.7424V6.1432C54.6411 4.93289 53.6565 3.94839 52.4463 3.94839H44.6167C43.4064 3.94839 42.4219 4.933 42.4219 6.1432V21.0138C42.4219 21.4992 42.8154 21.8927 43.3008 21.8927C43.7862 21.8927 44.1797 21.4992 44.1797 21.0138V6.1432C44.1797 5.90214 44.3757 5.70621 44.6167 5.70621H52.4463C52.6874 5.70621 52.8833 5.90226 52.8833 6.1432V27.7424C52.8833 27.9834 52.6873 28.1794 52.4463 28.1794H44.6167C44.3756 28.1794 44.1797 27.9833 44.1797 27.7424V25.1225C44.1797 24.6371 43.7862 24.2436 43.3008 24.2436C42.8154 24.2436 42.4219 24.6371 42.4219 25.1225V27.7424C42.4219 28.9526 43.4065 29.9372 44.6167 29.9372Z" fill="#F5F5F5"/>
<path d="M7.5532 29.9372H15.3829C16.5932 29.9372 17.5777 28.9526 17.5777 27.7424V6.1432C17.5777 4.93289 16.593 3.94839 15.3829 3.94839H7.5532C6.34289 3.94839 5.3584 4.933 5.3584 6.1432V8.37574C5.3584 8.86113 5.75191 9.25464 6.2373 9.25464C6.7227 9.25464 7.11621 8.86113 7.11621 8.37574V6.1432C7.11621 5.90214 7.31227 5.70621 7.5532 5.70621H15.3829C15.6239 5.70621 15.8198 5.90226 15.8198 6.1432V27.7424C15.8198 27.9834 15.6238 28.1794 15.3829 28.1794H7.5532C7.31215 28.1794 7.11621 27.9833 7.11621 27.7424V12.5252C7.11621 12.0398 6.7227 11.6463 6.2373 11.6463C5.75191 11.6463 5.3584 12.0398 5.3584 12.5252V27.7424C5.35828 28.9526 6.34289 29.9372 7.5532 29.9372Z" fill="#F5F5F5"/>
<path d="M11.4679 41.4875C7.70117 41.4875 4.63672 44.552 4.63672 48.3187C4.63672 52.0855 7.70117 55.15 11.4679 55.15C15.2347 55.15 18.2991 52.0855 18.2991 48.3187C18.2991 44.552 15.2347 41.4875 11.4679 41.4875ZM11.4679 53.3921C8.67043 53.3921 6.39453 51.1162 6.39453 48.3187C6.39453 45.5212 8.67043 43.2453 11.4679 43.2453C14.2654 43.2453 16.5413 45.5212 16.5413 48.3187C16.5413 51.1162 14.2654 53.3921 11.4679 53.3921Z" fill="#F5F5F5"/>
<path d="M11.4682 44.7343C9.49172 44.7343 7.88379 46.3423 7.88379 48.3188C7.88379 50.2952 9.49172 51.9032 11.4682 51.9032C13.4447 51.9032 15.0526 50.2951 15.0526 48.3188C15.0526 46.3424 13.4447 44.7343 11.4682 44.7343ZM11.4682 50.1455C10.461 50.1455 9.6416 49.326 9.6416 48.3189C9.6416 47.3118 10.461 46.4923 11.4682 46.4923C12.4754 46.4923 13.2948 47.3117 13.2948 48.3189C13.2948 49.3261 12.4754 50.1455 11.4682 50.1455Z" fill="#F5F5F5"/>
<path d="M30.0002 41.4875C26.2334 41.4875 23.1689 44.552 23.1689 48.3187C23.1689 52.0855 26.2334 55.15 30.0002 55.15C33.7669 55.15 36.8314 52.0855 36.8314 48.3187C36.8314 44.552 33.7669 41.4875 30.0002 41.4875ZM30.0002 53.3921C27.2027 53.3921 24.9268 51.1162 24.9268 48.3187C24.9268 45.5212 27.2027 43.2453 30.0002 43.2453C32.7977 43.2453 35.0736 45.5212 35.0736 48.3187C35.0736 51.1162 32.7977 53.3921 30.0002 53.3921Z" fill="#F5F5F5"/>
<path d="M30.0004 44.7343C28.0239 44.7343 26.416 46.3423 26.416 48.3188C26.416 50.2952 28.0239 51.9032 30.0004 51.9032C31.9769 51.9032 33.5848 50.2951 33.5848 48.3188C33.5848 46.3424 31.9769 44.7343 30.0004 44.7343ZM30.0004 50.1455C28.9932 50.1455 28.1738 49.326 28.1738 48.3189C28.1738 47.3118 28.9932 46.4923 30.0004 46.4923C31.0077 46.4923 31.827 47.3117 31.827 48.3189C31.827 49.3261 31.0077 50.1455 30.0004 50.1455Z" fill="#F5F5F5"/>
<path d="M48.5324 41.4875C44.7656 41.4875 41.7012 44.552 41.7012 48.3187C41.7012 52.0855 44.7656 55.15 48.5324 55.15C52.2991 55.15 55.3636 52.0855 55.3636 48.3187C55.3636 44.552 52.2991 41.4875 48.5324 41.4875ZM48.5324 53.3921C45.7349 53.3921 43.459 51.1162 43.459 48.3187C43.459 45.5212 45.7349 43.2453 48.5324 43.2453C51.3299 43.2453 53.6058 45.5212 53.6058 48.3187C53.6058 51.1162 51.3298 53.3921 48.5324 53.3921Z" fill="#F5F5F5"/>
<path d="M48.5317 44.7343C46.5552 44.7343 44.9473 46.3423 44.9473 48.3188C44.9473 50.2952 46.5552 51.9032 48.5317 51.9032C50.5082 51.9032 52.1161 50.2951 52.1161 48.3188C52.1161 46.3424 50.508 44.7343 48.5317 44.7343ZM48.5317 50.1455C47.5245 50.1455 46.7051 49.326 46.7051 48.3189C46.7051 47.3118 47.5245 46.4923 48.5317 46.4923C49.5389 46.4923 50.3583 47.3117 50.3583 48.3189C50.3583 49.3261 49.5388 50.1455 48.5317 50.1455Z" fill="#F5F5F5"/>
</svg>
