<svg width="44" height="44" viewBox="0 0 44 44" fill="none" xmlns="http://www.w3.org/2000/svg">
<rect width="44" height="44" rx="6" fill="#F4FCF3"/>
<g clip-path="url(#clip0_36_243)">
<path d="M28.6667 12H15.3333C14.4493 12 13.6014 12.3512 12.9763 12.9763C12.3512 13.6014 12 14.4493 12 15.3333V25.3333C12 26.2174 12.3512 27.0652 12.9763 27.6904C13.6014 28.3155 14.4493 28.6667 15.3333 28.6667H17.75L21.4592 31.8025C21.6096 31.9298 21.8004 31.9997 21.9975 31.9997C22.1946 31.9997 22.3854 31.9298 22.5358 31.8025L26.25 28.6667H28.6667C29.5507 28.6667 30.3986 28.3155 31.0237 27.6904C31.6488 27.0652 32 26.2174 32 25.3333V15.3333C32 14.4493 31.6488 13.6014 31.0237 12.9763C30.3986 12.3512 29.5507 12 28.6667 12V12ZM30.3333 25.3333C30.3333 25.7754 30.1577 26.1993 29.8452 26.5118C29.5326 26.8244 29.1087 27 28.6667 27H26.25C25.8561 27.0001 25.4749 27.1398 25.1742 27.3942L22 30.075L18.8275 27.3942C18.5263 27.1394 18.1445 26.9997 17.75 27H15.3333C14.8913 27 14.4674 26.8244 14.1548 26.5118C13.8423 26.1993 13.6667 25.7754 13.6667 25.3333V15.3333C13.6667 14.8913 13.8423 14.4674 14.1548 14.1548C14.4674 13.8423 14.8913 13.6667 15.3333 13.6667H28.6667C29.1087 13.6667 29.5326 13.8423 29.8452 14.1548C30.1577 14.4674 30.3333 14.8913 30.3333 15.3333V25.3333Z" fill="#1FBA14"/>
<path d="M17.8333 17.8333H22C22.221 17.8333 22.433 17.7455 22.5893 17.5893C22.7455 17.433 22.8333 17.221 22.8333 17C22.8333 16.779 22.7455 16.567 22.5893 16.4107C22.433 16.2545 22.221 16.1667 22 16.1667H17.8333C17.6123 16.1667 17.4004 16.2545 17.2441 16.4107C17.0878 16.567 17 16.779 17 17C17 17.221 17.0878 17.433 17.2441 17.5893C17.4004 17.7455 17.6123 17.8333 17.8333 17.8333Z" fill="#1FBA14"/>
<path d="M26.1667 19.5H17.8333C17.6123 19.5 17.4004 19.5878 17.2441 19.7441C17.0878 19.9004 17 20.1123 17 20.3333C17 20.5543 17.0878 20.7663 17.2441 20.9226C17.4004 21.0789 17.6123 21.1667 17.8333 21.1667H26.1667C26.3877 21.1667 26.5996 21.0789 26.7559 20.9226C26.9122 20.7663 27 20.5543 27 20.3333C27 20.1123 26.9122 19.9004 26.7559 19.7441C26.5996 19.5878 26.3877 19.5 26.1667 19.5Z" fill="#1FBA14"/>
<path d="M26.1667 22.8333H17.8333C17.6123 22.8333 17.4004 22.9211 17.2441 23.0774C17.0878 23.2337 17 23.4456 17 23.6667C17 23.8877 17.0878 24.0996 17.2441 24.2559C17.4004 24.4122 17.6123 24.5 17.8333 24.5H26.1667C26.3877 24.5 26.5996 24.4122 26.7559 24.2559C26.9122 24.0996 27 23.8877 27 23.6667C27 23.4456 26.9122 23.2337 26.7559 23.0774C26.5996 22.9211 26.3877 22.8333 26.1667 22.8333Z" fill="#1FBA14"/>
</g>
<defs>
<clipPath id="clip0_36_243">
<rect width="20" height="20" fill="white" transform="translate(12 12)"/>
</clipPath>
</defs>
</svg>
