<svg width="45" height="44" viewBox="0 0 45 44" fill="none" xmlns="http://www.w3.org/2000/svg">
<rect x="0.5" width="44" height="44" rx="6" fill="#F4FCF3"/>
<g clip-path="url(#clip0_36_268)">
<path d="M28.3333 15.3333H27.4167C27.2233 14.3928 26.7115 13.5478 25.9677 12.9406C25.2239 12.3334 24.2935 12.0012 23.3333 12L21.6667 12C20.7065 12.0012 19.7761 12.3334 19.0323 12.9406C18.2885 13.5478 17.7767 14.3928 17.5833 15.3333H16.6667C15.562 15.3347 14.503 15.7741 13.7218 16.5552C12.9407 17.3363 12.5013 18.3953 12.5 19.5V27.8333C12.5013 28.938 12.9407 29.997 13.7218 30.7782C14.503 31.5593 15.562 31.9987 16.6667 32H28.3333C29.438 31.9987 30.497 31.5593 31.2782 30.7782C32.0593 29.997 32.4987 28.938 32.5 27.8333V19.5C32.4987 18.3953 32.0593 17.3363 31.2782 16.5552C30.497 15.7741 29.438 15.3347 28.3333 15.3333ZM21.6667 13.6667H23.3333C23.8485 13.6688 24.3505 13.8301 24.7706 14.1284C25.1906 14.4267 25.5083 14.8476 25.68 15.3333H19.32C19.4917 14.8476 19.8094 14.4267 20.2294 14.1284C20.6495 13.8301 21.1514 13.6688 21.6667 13.6667ZM16.6667 17H28.3333C28.9964 17 29.6323 17.2634 30.1011 17.7322C30.5699 18.2011 30.8333 18.837 30.8333 19.5V22H14.1667V19.5C14.1667 18.837 14.4301 18.2011 14.8989 17.7322C15.3677 17.2634 16.0036 17 16.6667 17ZM28.3333 30.3333H16.6667C16.0036 30.3333 15.3677 30.0699 14.8989 29.6011C14.4301 29.1323 14.1667 28.4964 14.1667 27.8333V23.6667H21.6667V24.5C21.6667 24.721 21.7545 24.933 21.9107 25.0893C22.067 25.2455 22.279 25.3333 22.5 25.3333C22.721 25.3333 22.933 25.2455 23.0893 25.0893C23.2455 24.933 23.3333 24.721 23.3333 24.5V23.6667H30.8333V27.8333C30.8333 28.4964 30.5699 29.1323 30.1011 29.6011C29.6323 30.0699 28.9964 30.3333 28.3333 30.3333Z" fill="#1FBA14"/>
</g>
<defs>
<clipPath id="clip0_36_268">
<rect width="20" height="20" fill="white" transform="translate(12.5 12)"/>
</clipPath>
</defs>
</svg>
