<svg width="40" height="40" viewBox="0 0 40 40" fill="none" xmlns="http://www.w3.org/2000/svg">
<g clip-path="url(#clip0_36_726)">
<path d="M39.2891 7.56476C38.7709 6.95211 38.0451 6.57789 37.2453 6.51109L9.07692 4.15907C8.27708 4.09227 7.49942 4.34094 6.88669 4.85914C6.27646 5.37531 5.90279 6.09742 5.83388 6.89328L5.26717 12.2101H3.00429C1.34773 12.2101 0 13.5579 0 15.2144V32.8473C0 34.5039 1.34773 35.8516 3.00429 35.8516H31.2708C32.9274 35.8516 34.2752 34.5039 34.2752 32.8473V29.9869L35.2782 30.0707C35.3628 30.0777 35.447 30.0812 35.5304 30.0812C37.0748 30.0812 38.3913 28.893 38.5221 27.3268L39.9894 9.75506C40.0561 8.9553 39.8074 8.17749 39.2891 7.56476ZM3.00429 13.7726H31.2708C32.0658 13.7726 32.7127 14.4194 32.7127 15.2144V16.8211H1.56249V15.2144C1.56249 14.4194 2.20929 13.7726 3.00429 13.7726ZM1.56249 18.3836H32.7127V21.6249H1.56249V18.3836ZM31.2708 34.2891H3.00429C2.20929 34.2891 1.56249 33.6423 1.56249 32.8473V23.1874H32.7127V32.8473C32.7127 33.6423 32.0658 34.2891 31.2708 34.2891ZM38.4323 9.62499L36.965 27.1967C36.8988 27.989 36.2003 28.58 35.4082 28.5136L34.2752 28.419V15.2144C34.2752 13.5579 32.9274 12.2101 31.2708 12.2101H6.83857L7.38849 7.05078C7.38911 7.04484 7.38966 7.03898 7.39013 7.03296C7.4563 6.2407 8.15442 5.64977 8.94692 5.71617L37.1154 8.0682C37.4992 8.10023 37.8476 8.27983 38.0963 8.5739C38.3449 8.86796 38.4643 9.24116 38.4323 9.62499Z" fill="white"/>
<path d="M29.4432 25.5102H21.9243C21.4928 25.5102 21.1431 25.86 21.1431 26.2915V31.1969C21.1431 31.6283 21.4928 31.9781 21.9243 31.9781H29.4432C29.8747 31.9781 30.2245 31.6283 30.2245 31.1969V26.2915C30.2245 25.86 29.8747 25.5102 29.4432 25.5102ZM28.662 30.4156H22.7056V27.0727H28.662V30.4156Z" fill="white"/>
</g>
<defs>
<clipPath id="clip0_36_726">
<rect width="40" height="40" fill="white"/>
</clipPath>
</defs>
</svg>
