<svg width="7" height="8" viewBox="0 0 7 8" fill="none" xmlns="http://www.w3.org/2000/svg">
                                    <path d="M4.83267 7.37551L6.76355 5.44463C6.915 5.29311 7.00005 5.08764 7 4.87341C6.99995 4.65918 6.9148 4.45375 6.76328 4.3023C6.61177 4.15086 6.40629 4.0658 6.19206 4.06585C5.97784 4.06591 5.7724 4.15105 5.62096 4.30257L4.30768 5.61585L4.30768 0.881254C4.30768 0.667045 4.22258 0.461609 4.07111 0.310141C3.91965 0.158672 3.71421 0.0735777 3.5 0.0735777C3.28579 0.0735777 3.08036 0.158672 2.92889 0.310141C2.77742 0.461609 2.69232 0.667045 2.69232 0.881254L2.69232 5.61585L1.37904 4.30257C1.2276 4.15105 1.02216 4.06591 0.807935 4.06585C0.593707 4.0658 0.388235 4.15086 0.236718 4.3023C0.0852006 4.45375 4.98675e-05 4.65918 -6.86644e-07 4.87341C-5.12407e-05 5.08764 0.0850022 5.29311 0.236448 5.44463L2.16733 7.37551C2.52111 7.72832 3.00036 7.92645 3.5 7.92645C3.99964 7.92645 4.47888 7.72832 4.83267 7.37551Z" fill="#D9D9D9"/>
                                </svg>