<svg width="7" height="8" viewBox="0 0 7 8" fill="none" xmlns="http://www.w3.org/2000/svg">
                                    <path d="M2.16733 0.624518L0.236448 2.5554C0.0850026 2.70692 -5.04089e-05 2.91239 7.97049e-08 3.12662C5.05683e-05 3.34085 0.0852003 3.54628 0.236718 3.69773C0.388235 3.84917 0.593708 3.93423 0.807935 3.93418C1.02216 3.93413 1.2276 3.84898 1.37904 3.69746L2.69232 2.38418L2.69232 7.11878C2.69232 7.33299 2.77742 7.53842 2.92889 7.68989C3.08035 7.84136 3.28579 7.92645 3.5 7.92645C3.71421 7.92645 3.91964 7.84136 4.07111 7.68989C4.22258 7.53842 4.30768 7.33299 4.30768 7.11878L4.30768 2.38418L5.62096 3.69746C5.7724 3.84898 5.97784 3.93413 6.19206 3.93418C6.40629 3.93423 6.61176 3.84917 6.76328 3.69773C6.9148 3.54628 6.99995 3.34085 7 3.12662C7.00005 2.91239 6.915 2.70692 6.76355 2.5554L4.83267 0.624518C4.47888 0.271708 3.99964 0.0735827 3.5 0.0735827C3.00036 0.0735827 2.52112 0.271708 2.16733 0.624518Z" fill="#D9D9D9"/>
                                </svg>